<?xml version="1.0" encoding="UTF-8"?>
<svg id="Objects" xmlns="http://www.w3.org/2000/svg" version="1.1" viewBox="0 0 2200 2200">
  <!-- Generator: Adobe Illustrator 29.5.1, SVG Export Plug-In . SVG Version: 2.1.0 Build 141)  -->
  <defs>
    <style>
      .st0 {
        fill: #231f20;
        stroke-miterlimit: 10;
        stroke-width: .5px;
      }

      .st0, .st1, .st2 {
        stroke: #231f20;
      }

      .st3 {
        opacity: .66;
      }

      .st3, .st4 {
        fill: #fff;
      }

      .st5 {
        fill: #ca9e67;
      }

      .st6 {
        fill: #006233;
      }

      .st7 {
        fill: #0e8a44;
      }

      .st1 {
        stroke-width: 8px;
      }

      .st1, .st2 {
        fill: none;
      }

      .st2 {
        stroke-width: 14px;
      }
    </style>
  </defs>
  <polygon class="st3" points="1115.22 869.53 1160.81 615.6 1145.48 873.11 1220.75 626.38 1175.07 880.28 1279.02 644.17 1203.63 890.88 1334.76 668.73 1230.73 904.79 1387.22 699.7 1255.99 921.79 1435.64 736.66 1279.05 941.68 1479.34 779.09 1299.62 964.16 1517.72 826.39 1317.37 988.91 1550.25 877.91 1332.08 1015.58 1576.43 932.9 1343.53 1043.79 1595.96 990.6 1351.54 1073.17 1608.5 1050.21 1356.05 1103.3 1613.92 1110.88 1356.96 1133.75 1612.11 1171.78 1354.26 1164.1 1603.12 1232.04 1347.98 1193.89 1587.07 1290.8 1338.22 1222.75 1564.16 1347.24 1325.12 1250.24 1534.75 1400.59 1308.87 1276 1499.24 1450.07 1289.68 1299.65 1458.13 1495.02 1267.81 1320.85 1411.99 1534.79 1243.62 1339.35 1361.46 1568.82 1217.39 1354.83 1307.27 1596.64 1189.51 1367.11 1250.16 1617.84 1160.38 1376.01 1190.95 1632.16 1130.41 1381.41 1130.46 1639.37 1100 1383.2 1069.54 1639.37 1069.59 1381.41 1009.07 1632.16 1039.62 1376.01 949.85 1617.86 1010.49 1367.11 892.74 1596.65 982.62 1354.85 838.55 1568.82 956.38 1339.35 788.02 1534.79 932.19 1320.88 741.88 1495.03 910.33 1299.66 700.76 1450.09 891.13 1276 665.25 1400.61 874.88 1250.25 635.85 1347.25 861.78 1222.76 612.95 1290.8 852.02 1193.89 596.89 1232.04 845.74 1164.1 587.89 1171.8 843.03 1133.75 586.08 1110.91 843.95 1103.31 591.5 1050.24 848.44 1073.18 604.04 990.63 856.47 1043.81 623.54 932.91 867.92 1015.59 649.75 877.92 882.62 988.91 682.26 826.41 900.39 964.16 720.64 779.11 920.93 941.69 764.35 736.68 944.01 921.81 812.78 699.72 969.27 904.79 865.22 668.74 996.37 890.89 920.97 644.18 1024.92 880.28 979.23 626.38 1054.53 873.11 1039.18 615.61 1084.77 869.51 1099.99 612 1115.22 869.53"/>
  <path class="st7" d="M1402.31,1441.1h.01-.01Z"/>
  <path class="st6" d="M1487.62,1339.26c-.23-6.51-1.79-13.4-4.43-19.25l-.44-1-.82.53-.03-.05-.57-.58h-.03s.05-.18.05-.18l.19-.9-.45-1.21-.82-1.8-.77-1.22-.53-.45.27-.85-.77-1.67-1.67-.85-1.22.67-.33,1.34.04.72v.03l-1.44,2.13-2.26,1.34h-.04l-.4.1-1.67.85,1.67.84,1.05,2.01c0,1.43-.72,3.3-1.1,4.51-.42,1.48-.67,2.6-1.04,3.15-.37.51-.76.85-2.38.92h-.57s0-.03,0-.03l-1.21-2.49-.59-.61-.67.54-.99,2.03.6,1.54,1.67.67h.03v-.68l-.1.68.13-.92.81.45v.04s-1.02.74-1.02.74l-.86,1.83-.68-.85-1.04-1.13-1.47-.68-1.35.86-.41,1.64-.04.64c.01,1.62.6,2.76,1.09,4.01l.1.75-.13,1.13-.58-.03-.08-.08-1.45.91c-.69.42-1.59,1.18-1.59,2.47l.47,1.68.66.8-.46.28-1.34,1.72v-.18s-.05-.62-.05-.62l-.17-.97-.95.22-2.02,1.61-.54,1.54-1.31,1.21-1.59,2.18-.02.44.02.36-1.19-.26-.17.03-2.63,1.31-1.72,1.57-1.66,1.14-1.41,2.3.05.36h-.02s0,.1,0,.1l-1.52-.74-1.74,1.13-1.95-.3-1.59.3-1.29,1.9-.44-.05-1.9.9-.13.13-.53-.69-.55-.67-.72.49c-1.47,1.08-2.44,2.52-3.55,2.88l-.67.09-2.46-.17-2.22.73-.54,1.48-.06,1.62-.91-.85.71,2.95.05.5c.02,1.13-.87,2.71-1.61,3.92-.51.86-1.66,2.24-2.68,3.7-1,1.49-1.95,3.11-1.98,4.85l.51,1.93.44,2.24c.01,1.34-.26,2.93-.26,4.37l.03.72c.32,2.93,2.11,5.06,2.05,7.12v1.4c-.03,1.67.13,3.25,1.26,5.07l.61,1.79c.03.68-.36,1.5-.8,2.89l-.13.77.59,1.7.31.69-.14.41c-.94,1.72-2.22,3.42-3.34,5.24-1.13,1.84-2.61,3.75-3.51,5.98l-.59,2.98-.98,1.47c-1.21.42-2.05.62-2.8,1.32-.77.76-.95,1.75-1.08,3.17-.09,1.85-2.14,3.98-2.88,6.72l.92.22-.91.2.22,2.35c0,1.1-.09,2.3-.09,3.51,0,1.87.24,3.91,1.64,5.63,1.02,1.21,1.02,2.76,1.71,4.75l.94,1.57.31.5-.48.76c-1.08,1.31-1.34,3.37-1.36,5.47.01,2.08.31,4.1.93,5.42.99,2.03,1.87,3.39,2.35,5.39.58,2.36,1.92,3.52,3.33,4.6l.22.61,1.97,1.49c1.21.35,2.25.23,3.01.45l2.59,1.68c.9.79,1.91,1.7,3.39,2.03l1.16.13c2.26-.03,4.27-1.26,6.15-2.52,1.87-1.26,3.68-2.57,5.14-2.98l.6-.08,2.29.2,1.23-.2,2.77-1.18c2.16-.5,3.03-2.6,3.62-3.81.82-1.73,1.35-3.54,1.84-5.32.58-2.22,2.06-4.17,2.89-6.71,1.39-4.3,2.89-8.49,4.08-12.96,1.67-6.22,4.19-11.82,6.4-17.96,1.79-5.04,2.8-10.07,4.93-14.73.48-1.09,1.45-2.79,1.47-4.58l-.04-.6.28-.37,1.32-3.24c1.29-3.44,1.98-6.99,3.29-10.17,2-4.8,3.85-8.98,4.91-14.27l.18-2.01c0-1.54-.2-3.1-.2-4.52.03-2.18.39-3.74,2.39-4.86l.69-.59-.18.92.25,1.13.71,1.62.94-1.5c.78-1.26,1.09-2.53,1.63-3.48l-.31-.18.21-.28h.23v-.64l-1.77-.45-.63.94.78-2.77.03-.72-.05-1.59.06-.81.04-.45-1.13-1.89-.4-.46v-.1c-.01-.68-.22-2.45-.22-4.2l.23-2.5.21-.5h.02c.54.16.98,1.21,1.31,2.65.38,1.31.65,3.06,2.39,3.75l.74.13,2.23-1.3c1.54-2.04,2.31-5.57,2.54-6.68l.09-.89c-.06-2.13-1.32-3.2-1.68-4.52-.98-3.21-.9-6.4-1.01-9.93Z"/>
  <path class="st4" d="M1424.13,1488.54l-1.39-.14c-1.7-.4-2.85-1.39-3.78-2.18l-2.25-1.55-.95-.13-2.09-.33c-1.21-.5-2-1.27-2.49-1.84l-.14-.21-.23-.49c-1.41-1.1-2.79-2.47-3.4-4.97-.31-1.36-.85-2.39-1.51-3.7l-.74-1.48c-.87-1.89-1.03-4.5-1.03-5.87.03-2.01.23-4.51,1.61-6.18l.04-.04-1-1.73-.57-2-.95-2.41c-1.68-2.07-1.9-4.47-1.9-6.32l.05-1.87.05-1.63-.21-2.09v-.96c.39-1.44,1.09-2.7,1.71-3.82l1.13-2.67c.13-1.46.32-2.83,1.4-3.89l2.6-1.37.59-.2.31-.69.13-.85.51-2.26c.69-1.75,1.67-3.24,2.62-4.68l.95-1.5,1.47-2.22,1.8-2.85-.08-.11-.74-2.27.17-1.09.35-1.04.4-1.5-.45-1.25c-1.21-1.94-1.44-3.66-1.44-5.65l.03-1.31-.81-2.89c-.5-1.2-1.07-2.57-1.24-4.2l-.03-.82.13-2.32.13-2.04-.28-1.67-.69-2.49c.04-2.11,1.16-3.93,2.18-5.47l1.43-1.93,1.22-1.72,1.45-3.31-.03-.28-.71-2.97.51-1.2.48-.14v-.11s.78-1.76.78-1.76l3.03-1.1,1.51.1,1.26.04,1.53-1.21,1.73-1.51.74-.52,1.47.21.41.51,1.49-.55,1.58-1.75,2.07-.42,1.54.15,2.18-.97.7.08,1.5-1.85,1.37-.95.36-.23.91-.82.71-.67c.59-.54,1.7-1.5,3.29-1.61h.24s.22-.01.22-.01c.39-1.25,1.26-1.98,1.85-2.47l1.08-.9.22-.62.27-.8c.31-.93,1.31-2.03,2.83-2.29l.9-.2.39-.03-.35-1.63c.01-.96.37-2.33,2.12-3.39l.67-.4.55-.33.49-.3-.04-.4-.2-.51c-.44-1.05-.95-2.26-.95-3.81l.05-.76.54-2.06,2.25-1.44.96.18-.08-.77,1.39-2.88.67-.54,1.46.08.59.62,1.36,2.17,1.13-.44.59-1.79.54-1.8.8-3.44-.46-1.05-1.64-.84-.6-.98.6-.96,1.67-.85.77-.2h.2l1.44-1.03,1.13-1.41-.05-.72.51-1.9,2.08-1.16c1.19.05,1.89.57,2.46,1.13l1.13,2.42-.06.59.04.04.92,1.47.36.83.36.8h-.03s.69,1.87.69,1.87v.08l.41.04.67.6.46.99c2.67,5.94,4.28,12.92,4.52,19.66l.05,1.64c.06,2.8.13,5.45.93,8.01l.57,1.21c.49.89,1.1,1.99,1.16,3.6l-.1,1.1c-.38,1.81-1.22,5.11-2.75,7.14l-3.08,1.75-1.13-.2c-1.63-.67-2.28-1.94-2.67-3.11l.1,1.7.06.9h.01c.35.27,1.54,1.13,1.53,2.75l-.05.62-.06.64.03.69.03.89-.03.83-.15.89.95.24.82,1.05v.64l-.11.49-.14.51-.59,1.29-1.07,2.24-.93,1.49-1,.51-.91-.64-.71-1.62-.13-.28c-.76.74-.93,1.72-.95,3.26l.1,2.09.12,2.4-.19,2.23c-1,4.92-2.67,8.95-4.44,13.22l-.54,1.26c-.68,1.66-1.18,3.4-1.72,5.25-.46,1.59-.95,3.24-1.55,4.88l-.12.36-1.31,3.06-.08.13v.28c0,1.72-.74,3.29-1.27,4.42l-.27.59c-1.29,2.8-2.16,5.7-3.06,8.77-.57,1.93-1.16,3.92-1.86,5.9-.73,2.03-1.49,4.02-2.25,5.98-1.54,4.01-3.01,7.78-4.11,11.89-.87,3.27-1.93,6.44-2.94,9.49l-1.16,3.52c-.42,1.28-.99,2.39-1.53,3.46l-1.35,3.18c-.47,1.7-1.03,3.65-1.89,5.51l-.15.3c-.64,1.32-1.72,3.53-4.21,4.11l-1.22.49-1.43.67-1.62.27-1.48-.14-1.12-.04c-1.1.32-2.57,1.32-4.12,2.38l-.71.46c-2.13,1.41-4.24,2.69-6.73,2.71h-.03ZM1412.93,1481.06l1.46,1.08,1.55.22,1.32.2,3.03,1.9,2.9,1.8.93.1c1.9-.02,3.65-1.08,5.55-2.34l.69-.46c1.7-1.16,3.3-2.26,4.75-2.67l.87-.13h.03l1.12.1,1.2.13.83-.14,1.19-.55,1.77-.69c1.44-.33,2.13-1.77,2.7-2.93l.13-.28c.8-1.7,1.32-3.55,1.77-5.14.32-1.26.9-2.39,1.5-3.6l1.4-3.16,1.16-3.52c1-3.03,2.05-6.17,2.9-9.38,1.13-4.21,2.62-8.05,4.19-12.12.75-1.94,1.52-3.91,2.24-5.92.68-1.93,1.26-3.89,1.82-5.78.89-3.01,1.8-6.11,3.13-9.03l.31-.64c.46-1,1.05-2.26,1.08-3.51l-.03-.43.23-.87.14-.18,1.12-2.64.18-.49c.57-1.51,1.03-3.13,1.48-4.69.53-1.82,1.08-3.71,1.81-5.48l.53-1.26c1.81-4.34,3.38-8.09,4.33-12.82l.15-1.8-.11-2.25-.1-2.27c.04-2.04.3-4.34,2.95-5.81l.4-.36,1.36-.23.49,1.28-.13.64.05.33.75-1.62.33-.8-.05-.14v-.06s-1.41.28-1.41.28l-.51-1.31.7-2.48.03-.6-.03-.8-.02-.8.09-1.03.03-.23-.68-1-.86-1.23v-.22l-.06-1.04-.14-3.16.26-2.79.35-.82,1.3-.43c.93.31,1.52,1.34,2.02,3.42l.11.44c.36,1.34.66,2.18,1.62,2.57l.33.05,1.39-.9c.91-1.21,1.77-3.5,2.33-6.22l.06-.67-.87-2.54-.77-1.7c-.85-2.8-.93-5.6-1-8.54l-.05-1.63c-.23-6.42-1.75-13.08-4.27-18.73l-1.1-.27-.41-.45-.14-.13-.06-.08-.27-1.1.08-.2.11-.54-.2-.49-.64-1.28-.33-.77-.57-.93-.28-.24-.51-.72.19-.86-.44-1.16-.91-.47-.23.14-.18.77.03.57-1.82,3.13-2.52,1.57,1.26,2.71c0,1.37-.5,2.92-.91,4.17l-.5,1.7-.91,2.44c-.66.93-1.48,1.29-3.07,1.39v.09l-.74,1.07-.49.37-.68,1.45-.83.8-1.08-.39-.67-.85-.93-1.01-.77-.4-.31.22-.33,1.3-.03.54.77,2.99.26.6.15,1.16-.13,1.35-1.12.86-.36-.03-.5.31-.64.38-1.08,1.53.36,1.17.38.46.39.93-.54.85-.35.23-1.01,1.35-1.26.55-.8-1.12v-.4s-1.07.85-1.07.85l-.22.69-.44,1.07-1.57,1.51-1.18,1.56v.38l-.44,1.06-1.12.1-.72-.13-2.08,1.05-.64.62-1.2,1.04-.43.27-1.17.81-.99,1.48.04.36-.03.26-.8.87-1.1-.36-.7-.35-.78.55-1.32.51-1.66-.23-1.05.18-.7,1.18-.5.68-.85.12-1.31.59-.93.35-.85-.4-.38-.51-1.37,1.23-2.35,1.71-1,.14-1.17-.08-1.3-.1-1.48.45-.17.5-.05.39-.04,1.41-.47.9.23.96.08.74c.04,1.34-.82,2.94-1.76,4.48l-1.35,1.9-1.36,1.85c-.85,1.27-1.77,2.75-1.8,4.25l.37,1.34c.4.64.6,1.59.59,2.81l-.13,2.24-.13,2.13v.62c.17,1.28.64,2.44,1.12,3.57.51,1.23,1,2.41.96,3.67v1.37c-.03,1.66.16,2.99,1.09,4.5l.77,2.35-.52,2.24-.33,1-.06.44.37,1.05.52,1.39-.26.89-1.98,3.12-1.4,2.16-.99,1.54c-.9,1.36-1.81,2.76-2.43,4.29l-.37,1.76-.17,1.04-1.67,2.25-.63.22-1.8.88c-.44.43-.62,1.04-.74,2.48-.05,1.16-.71,2.34-1.4,3.58l-1.14,2.27.59.98-.75,1.03.06,1.53-.04,1.72-.05,1.79c0,1.59.16,3.42,1.39,4.93l1.39,3.29.52,1.8.69,1.15.46.72.16.57-.09.42-.66,1.03c-.92,1.12-1.08,3.15-1.08,4.79,0,2.03.31,3.83.82,4.93l.69,1.41c.69,1.31,1.34,2.57,1.72,4.19.48,2,1.61,3.01,2.93,4l.41.78.05.09ZM1465.24,1326.72l-.47,1.09.28.77.46-.46.49-.11-.76-1.29Z"/>
  <path class="st6" d="M1490.54,1019.75l-1.95-.82-.5-.33.14-1.63c0-1.4-.26-2.76-.44-3.85l-.23-2.45c0-1.9.46-3.49,1.12-5.86l.09-.68c-.05-1.53-1.23-2.43-2.42-3.01-1.23-.59-2.67-.91-3.9-.91l-1.78.33c-1.25.64-1.81,1.77-2.35,2.67l-1.8,2.08c-2.19,1.16-5.01.72-7.89,1.84-2.39.99-4.29,2.35-6.4,2.33l-.54-.03c-1.16-.1-2.21-.64-3.78-.67l-1.22.14c-1.73.39-3.2,1.17-4.61,1.66l-2.83.54-3.01-.62-.9-.14c-1.54.04-2.93.98-4.26,1.93-1.31.96-2.54,2.02-3.16,2.4-1.53.95-2.5,1.18-3.56,1.19-1.07.01-2.3-.3-4.08-.6-1.4-.22-2.38-.44-3.35-.44-1.39,0-2.62.53-4.24,1.75-1.51,1.12-3.85,2.7-5.45,3.21-1.31.44-2.6.64-3.83.64-2.97,0-5.63-1.19-7.62-3.7-2.35-2.9-4.3-7.81-8.26-10.1l-1.59-1.23-1.04-.18-3.12.67,1.31-1.21c1.63-.68,4.83-2.06,6.22-3.72l.73-2.18c-.01-1.59-.86-3.03-1.71-4.37l-1.87-2.85.05-.39c-.1-1.23-.87-1.66-1.64-2.47l-1-.92-.51,1.26-.1.2-.04-.02-1.81-1.98-1.58-2.21-1.83-.98-.58-.44c-.44-1.17-.28-3.53-2.27-4.91l-2.21-1.41-2.1-1.59c-1.94-1.21-3.1-3.19-4.52-5.32-1.39-2.03-2.61-4.56-5.86-5.04l-1.79-.8-1.63-2.05-2.21-1.12c-1.23.06-1.91.63-2.31.55l-.38-.08-1.71-3.26-.78-2.17-2.31-1.37-.42.03-1.07.73-.21.63-1.51-1.93-.74-.82c-.39-2.12-1.26-3.62-2.11-5.36-.67-1.37-.67-3.01-1.08-4.89-1.63-7.3-4.08-13.74-7.41-20.4h0s-1.02-1.79-1.02-1.79l-2.05-1.14-.7-.64-.1-1.93-1.32,1.17c-.48-.18-1.73-1.45-2.87-2.71-1.3-1.32-2.38-2.7-3.89-3.06-1.2-.14-2.3-1.67-2.99-3.8-.71-2.08-1.03-4.55-1.09-6.01-.19-3.7-1.12-6.97-1.09-10.24l.13-2.09.05-1c0-1.85-.59-3.72-1.26-5.24l-.18-.54,1.84-.23c-.1-1.91-1.2-3.32-2.21-4.57-1.04-1.23-2.02-2.36-2.35-3.49-.46-1.58-.35-2.62-.51-3.83-.15-1.23-.85-2.52-2.57-3.66-2.13-1.43-3.65-4.64-6.51-6.2-2.84-1.5-4.65-2.4-5.33-5.29l-.39-1.66-.31.31-.13-.19c-.8-.85-1.39-3.29-1.36-5.62l.15-2.2,2.21.32.46-.03,1.59-.08-.85-1.35c-1.52-2.3-3.83-2.89-4.83-4.47-1.46-2.14-3.06-3.74-4.08-5.86-2.87-5.86-5.91-11.51-8.93-17.25-.93-1.77-1.91-3.49-2.81-5.21l-1.13-1.54-.45-.67-.11-.28.22-.51.37-1.31-.26-.94-1.57-2.58c-.85-2.03-1.75-3.88-3.44-5.59l-.23-.91v-.63l-.13-1.23.24-.73-.6-1.64-.8-1.23-3.01-2.88c-2.03-2.03-3.8-5.09-5.57-7.65-1.82-2.54-1.57-6.09-4.21-9.3l-.36-1.14.64-2.31c.87,2.81,2.16,5.54,3.85,7.95,1.52,2.05,3.7,3.85,3.62,5.74l-.05.6-.08.73c.01,1.75,1.18,2.89,2.26,3.78l2.67,2.32c1.08,1.53,2.21,3.21,3.94,4.44,1.4.95,2.84,1.41,3.71,2.26l1.53-.98-.04-.29.78-1.9,1.04-2.84v-1.08c0-1.54.08-2.47.72-4.03,1.54-3.81,1.12-9.15,3.12-11.56l.32-.41-9.74-25.72-1.03.87c-1.31,1.17-3.06,1.86-4.87,2.42-1.43.49-3.27.03-5.28.68l-.24-.3-1.09-.37-1.87.45-1.17.39-.39.02-2.7-1.05c-.87-.6-1.87-1.44-3.4-1.8l-.12-.08-.02-.03-1.09-1.26-1.89-1.62-.9-.15-1.47.33h-.09v.03s-1.6.67-1.6.67h-.28s-2.27-.85-2.27-.85c-.86-.48-1.86-1.09-3.17-1.1l-1.26.2.05.46-.46-.06h-.17c-1.91.08-3.28,1.27-4.17,1.17l-.69-.18-1.13-.68-.28,1.27-1.57,1.98-.59-.47-.67-.51-.58.6-3.04,2.9c-1.82,1.57-4.14,3.15-6.29,3.13l-.77-.08c-2.69-.38-4.88-2.45-8.48-2.85l-2.93-.3-.55-.48-1.64-.91h-.19s-1.63.14-1.63.14l-1.3-.18-1.04-.86-1.93-1.4c-3.2-.85-6.4-1.59-9.75-1.93-2-.21-3.88-.77-6.01-.77l-2.85.4-2.63.54-.84-.19-.27-.75-.09-1.89-.27.24-.98-1.68-2.63-1.91-2.05-.18-3.26.11-2.28-.27c-2.34-.67-4.21-1.98-7.22-2.21l-2.57-.49-1.23-1.1-.03-.67.03-.94-.59-1.84-2.16-1.24c-2.26-.87-4.43-2.09-7.04-2.74-1.37-.33-2.8-.44-4.19-.44l-2.65.1c-2.59.28-3.87,1.9-5.66,1.87-2.53.1-5.46,1.54-8.03,3.47-2.54,1.93-4.73,4.34-5.55,6.76l-.41,2.7c0,1.75.44,3.44.95,4.96.69,1.94,1.8,3.4,1.75,4.79l-.08.69c-.93,4.35-5.86,8.44-10.2,8.79h-.46c-3.2.09-5.73-3.33-8.64-5.78-3.91-3.12-10.44-5.18-15.11-6.04-4.78-.84-9.16-.15-12.53-3.09-1.91-1.67-2.84-3.55-3.29-6.06-.36-2.06-.69-4.65-2.98-6.24-2.18-1.39-4.7-.55-6.01-1.18-1.84-.69-3.47-2.25-5.7-3.22-2.5-1.05-5.01-1.13-7.17-1.94l-1.98-.35c-2.22.04-3.8,1.09-5.53,1.26l-1.31.06c-1.87,0-3.67-.46-5.29-1.44-2.24-1.36-4.82-2.05-6.55-3.29l-.27-.18-.49-.33-.55-.38v.15l-1.22-.12h-.42l-.71-1.41-.63-.89-.03-.18.05-.75-1.31-1.83-.2-.02.74-1.72-.9-1.39-1.75-.33h-.08l-1.7.37-.92,1.64.08.6-1.67.28-.54-.13-2.34-2.22-.87-2.3,1.64-2.47c1.05-.82,2.52-1.62,3.81-2.63,2.9-2.32,5.63-6.01,5.65-10.06l-.17-1.68c-.33-1.61-.46-2.51-1.04-3.4-.6-.87-1.44-1.31-2.84-2.08-1.41-.72-2.52-2.81-2.49-4.47v-.22c0-.86.95-2.04,2.29-3.25,1.3-1.21,2.83-2.39,3.67-3.85l.64-2.21-1.72-2.58-.58-.12-1.84.87-1,.9-3.06,2.25h-.08s-.14-.03-.14-.03l.15-.81-1.12-2.04.12-.63-.16-.71-1.81-2.04-2.16-.49-1-.75-1.1-.2c-1.34.03-2.5.64-3.24.83-2.39.68-4.37,1.57-6.17,3.48l-.59.33-.78.1h-.01s-.08.03-.08.03l-.46.1-.45.19-.17.06c-1.54.55-3.65.09-5.92.64l-1.81.31h0s.9-1.49.9-1.49l-1.72.05h-.14c-.96.05-1.91-.78-3.53-1.23l-1.02-.15-1.62,1.03-.45.68-2.03.65-3.2-1.04c-.67-.42-2.04-1.14-3.46-1.19l-1.37.44-.65,1.52.04.46-2.12.57-2.53.28c-1.22.15-2.09.81-2.77,1.28l-1.61.8-1.28-.56c-2.02-1.57-3.24-2.47-5.96-2.42h-.51l-1.08.03-2.98-.04c-2.13,0-4.32.13-6.55,1l-2.35.14-1.32.05-.47.03-.23.04-.64.42-1.4-.35c-1.27.03-2.2.71-3.05,1.22l-2.33.95h-.14s-1.18-.05-1.18-.05c-3.26,0-6.4.82-9.4,1.16-4.96.63-13.44,2.59-16.26,8.14l-1.13,1.08c-.57.08-1.58-.67-2.98-.74l-1.65.64-1.64,1.21-.1-.04-1.13-.37c-1.36.05-2.35,1-2.85,1.22-1.59.83-2.24,2.15-2.93,3.33l-.91.95-1.66.76c-3.03,1.53-4.27,2.26-7.5,2.32l-1.68-.62-1.22.29-.9.22-1.61-.65-.53-.61-.28.24-.42-1.99v-.14s-1.76-.45-1.76-.45c-.98,1.77-2.13,2.03-3.93,2.08-1.31,0-2.79-.23-4.29-.24l-1.18.06c-1.9.23-3.53.49-5.01.49-1.85,0-3.44-.36-5.34-1.7-1.67-1.21-2.6-2.36-3.37-4.24l-.58-1.55-1.84-1.4-1.05.28-3.02.95-.3-.03h-.18l-1.54.95c-.9,1.29-1.44,3.47-1.62,3.91-2.72,7.42-6.27,17.28-13.08,21.1-3.54,2.02-7.61,3.38-11.48,5.12-3.83,1.75-6.09,5.01-8.81,7.48-1.31,1.21-2.9,2.64-3.54,4.73-.77,2.75-.36,4.64-1.82,6.37-3.01,3.65-5.04,6.2-5.27,11.41-.09,1.85-.04,3.31-.71,4.67l-.4,1.43.85,1.54,1.15.76.85,1.88c.04,2.26-2.13,5.84-3.26,7.24-2.43,3.14-4.7,6.47-7.58,8.91-3.11,2.65-6.24,4.91-9.3,7.83-2.85,2.74-6.77,3.99-10.78,4.87-2.07.48-4.43.55-6.73,1.39l-.99.81-1.87,2.5-.39.22-.18.21-1.27,1.54h.76l-.59,1.36c-.57,1.27-1.21,2.76-1.7,4.06-1.83,4.78-3.96,6.58-8.4,9.14-4.52,2.6-5.78,7.53-7.4,11.64-2.08,5.47-1.31,9.51-5.11,13.36-2.95,3.04-7.76,6.04-9.81,10.48l1.61.82-1.22,2.24c-.95,1.49-2,2.85-2.49,3.58l-.59,2.2-.1.63-.04.08-1.75,2.66-.55,2.56c-.38,1.19-1,1.71-1.9,2.35-.9.62-2.08,1.3-2.94,2.7-1.27,2.05-1.86,4.26-2.25,6.53-.35,2.25-1.98,5.91-2,9.16l.72,3.1.82-.46.92.19.8-2.97.77,2c.46,1.36.95,2.98,2.41,4.11l1.22.9.22-1.13c.87,1.83,1.87,3.8,1.85,5.29l-.55,1.59-.18.28-.81.77c-.74.72-1.49,1.75-1.49,3.04l.33,1.4.18-.09-.63,1.32-.96-.28.13,1.4c.31,2.25,2.17,3.17,2.82,4.15.78,1.01.8,2.58,1,4.31.44,3.44.9,6.49.9,9.7l-.14,3.04c-.64,7.19-5.71,13.53-5.85,21.63l-.47,1.39c-.68,2.11-1.23,4.06-1.37,4.33-1.31,2.86-3.14,5.88-5.32,8.07l-2.31,1.22-1.46.99-.81,1.76v.26s.22,1.85.22,1.85l1.36-1.26.92-.4c1.41.58,2.75,2.26,3.67,4.28.95,2.09,1.46,4.49,1.46,6.09l.05.28.46-.08-.03.13.09.49.24.74.77-.1h.04s-.01.07-.01.07l-.2,1.01,1.03.1.62.15-.78,1.41v.05h-.17l-1.16.45-1.13.89.58.73-.92-.17-.09.92.77,3.11-.1.26-.73,3.11.32,1.23.15.19-.21,1.04.13.87.05.2-.4,1.04.5,1.42.41.66.44,1.09.59-.41.87.61,2.24,1h.19l-.17.95.03.39-.31-.05.63,1.57.42,1.08.88-.36.41.85.18-.1,1.45.84h.04l.31-.04-.04,1.05,1.2-.28c.96-.26,2.54-.05,3.97-1.14l.5-.42-.13.8.87,2.58.1.19-.39,1.49.23.85.05.08v.03l-.49.86.06.04-.45.19,1.19.96,1.08.85.59-.72h.04l.57.5c.33.4.59,1.04.95,2.42l.23.87,1.82,1.97,1.49.26.49,2.26,1.23-1.98.21-.31h.11l-.97,2.18-.81,1.49,1.71-.13h.22s1,1.94,1,1.94l2.52,1.55,1.07,1.23,1.76.23h0s1.28,2.08,1.28,2.08l1.49.8-.05.1-.46,1,1.08.28.68.09h.14l.03.66.22,1.31.37.69.72.4.57.81.28.43v.08s-.33,1.27-.33,1.27l1.31-.1.17-.02.11,1.25.12.96-.04.51.03.36.22,1.8.58-.54.98.64-.27.18-1.07,2.03.49,1.79-.28.5-.44,1.53,1.3,2.31,2.13.73.37,2.34.51,1.98.36.8,1.08.64h.08l.6.44-1.07.05h-.22l-.04.81h-.04s-.04.1-.04.1l-.8-.33-.31.76-.4.95.99.31c1.39.42,2.85,1.08,4.55,1.31l.39.05-.2.39c1.57,1.28,8.89,5.24,11.05,6.18h-.03s1.65,2.17,1.65,2.17c.51.77,1.25,1.59,2.58,2.21l1.81,1.39,1.7,1.08,1.34,1.93c1.03.77,2.42,1.47,3.66,2.08,1.22.59,2.38,1.21,2.45,1.31,3.2,3.06,5.78,6.88,9.11,10.2,3.15,3.1,7.27,4.27,10.18,6.71,2.04,1.62,4.42,1.76,6.04,2.72,1.21.68,2.52,1.41,4.2,1.41l.79-.05.8.18,2.08-1.05c.97-1,4.75-2.95,6.01-3.03,3.75-.41,6.47-2.94,9.28-4.11,3.16-1.39,6.96-1.23,10.74-1.64l.03-.24,1.3.27,1.39-.15c2.92-.51,5.72-1,8.63-1.16l.76-.04,1.56.53.81-.21,2.95.91h.28s2.41-1.35,2.41-1.35l.28-.36.26.46,1.5,1.44-.53.98,1.76-.54,1.9,1.13,2.28.46c1.76.51,2.81.65,3.82,1.69l2.44,1.18h.03l1.72-.48c1.43-.76,2.31-1.91,3.21-2.63.99-.82,2.52-1.14,4.08-1.77,2.13-.9,4.69-.86,7.22-2.34,3.98-2.39,6.83-4.92,11.23-5.68l2.26-.72.54-.28,1.31.82.44.03c2.04,0,3.22-1.59,3.65-3.08l.83-.82.77-.76,2.61-1.12,1.98-.27c2.34-.32,4.65-.73,6.94-1.19,1.12-.23,2.98-.48,4.41-.58v.18s1-.23,1-.23h1.04s-.03-.18-.03-.18l2.36-.13h1.75s2.62-.11,2.62-.11l1.13-.15v-.05s.78.05.78.05l2.79-.26.9-.03c1.5,0,3.16.22,4.57.57,3.21.8,6.42,4.33,7.77,7.48l.57,1.28h.01s1.21,1.22,1.21,1.22l-.43.98.78,1.2,1.33.46.05.03-.31,1.13.16,1.08.23.95.95-.27h.04s-.11.5-.11.5l-.12,1c.01,1.7.89,3.03,1.48,4.16.82,1.54,1.94,3.22,3.79,4.14l.99.67,1.23.59,1.17.61,1.48-.94.81.19,1.46.09h.25s.58-.06.58-.06l.05,1.32,1.54-1.69.11-.15.13.19.9.49.9-.48.33-.59h.01s.53.35.53.35l.9.39.33-.92.23-.82.36.04-.39.21.47.04v.06s.94.04.94.04l.05.94,1.44-.42.36-.31.94.09.04-.46.3-.08.24.4,1.08-.64.82-.49,1.22.1c1.34,0,2.74-.26,3.4-.36,1.22-.18,2.06-.36,2.74-.75l1.14-1.79.72.68-.05.49.57,1.46,1.67.6.64-.04.86-.12-.05-.89v-.1s.71-.2.71-.2c.54,1.31.77,3.53,1.16,5.11l1.34,1.84,2.24.96h.18l1.91,1.13.71.03.21-.65.11-.37,1.12.04-.77.75-.76,1.63,1.04,1.75.77.36v.1l.8,2,.92,1.32.64,2.61c0,1.44-.44,3.04-.81,4.66l-.4,2.99.19,1.68c-.71,2.61.01,5.13-.91,6.37l-.77,1.37-.64,1.93-1.7,2.14c-.73.96-1.5,1.98-1.54,3.28l.2.98c.59,1.21,1.85,1.42,2.77,1.41l-.06.15-.14,1.23.33,2.88-1.1-.18-.59.05-1.15.44-.62,1.16.81,1.57.77.87-.55.49c-1.08.95-1.26,2.34-1.26,3.6,0,1.48.28,3.01.27,4.01v.46s-1.68,3.31-1.68,3.31l-.44.62-.28-.28-1.36-1.21-.18,1.81-.05.4-.31.12-.05-.35-.13-3.49-1.62,3.11-.37,1.48,1.09,2.84.75-.57-.55.77.29-.41-.37.33h.01l.59,1.13,1.73,3.39.22.33-.59.49c.88,1.57,1.98,2.8,2.32,4.14l.09.95-.05.2.07-.02v.05s.08.39.08.39l-.76-.06,1.34,1.71c.55.67,1.3,2.34,2.13,3.87.69,1.19,1.36,2.43,2.44,3.12l-.18.13.85.82c3.31,3.22,7.05,6.27,9.45,9.94,1.7,2.56,3.8,6.63,6.51,8.8,2.76,2.53,6.56,5.74,7.38,8.95l.72,2.7.76,1.51,1.4.87v.2c.05,1.64,1.24,3.06,1.35,3.67l.12.72c.05.56-.46,1.14-.49,2.66v.06l.64,1.77.26.21-.14.06c.54,1.48,1.3,2.48,2.2,2.99l-.93,2.08c.05,2.35,1.82,5.15,2.44,6.24,1.23,1.98,3.01,3.34,3.42,4.98.36,1.18.31,2.71.92,4.29,1.2,2.95,2.03,6,3.65,8.99,1.09,1.98,1.64,3.98,1.64,6.17l-.08,1.41-.29.33-1.4.87-.67.72-.04-.06c-1.3.6-1.99,1.79-1.95,2.89l.43,1.87.13,1.54.31-.57.67,1.34c.49.98.33,2.13.51,3.7.26,1.59,1.31,2.44,1.5,3.19.77,2.17.83,4.06,2.45,6.5,1.4,2.12,2.31,3.78,2.89,6.18.39,1.62.58,3.48.58,5.4.01,4.25-.98,8.82-2.8,12.01l-1.41,2.72-1.68.98c-2.07.13-3.21,1.53-3.61,2.84-.43,1.3-.55,2.63-1,3.43-.64,1.26-2.62,3.6-3.72,4.55l-1.16,3.4-.58,2.79c-1.76,2.85-1.09,5.99-1.61,8.47-.26,1.45-2.13,5.19-2.18,7.65l.17,1.07-.39.8-.72,1.67-.54,2.88c-.3.86-1.59,1.54-2.33,3.13l-.17.87.47,2,.13,2.65c0,3.93-.82,8-.82,12.18l.03.82-.13,3.31c-.01,5.62,1.18,11.33,5.81,15.48,4.51,3.98,5.55,11.42,8.61,17.17,3.17,5.82,4.11,12.64,8.68,18.46.76.89.92,2.44,1.75,4.02.86,1.54,1.98,2.82,2.88,4.11,1.63,2.28,3.03,5.06,3.15,7.73l.06,1.26c-.23,1.52-.85,4.03-.92,4.46l-.08,1.14c0,1.49.26,3.61.42,5.37l.06,1.54c0,1.21-.1,2.41-.1,3.67,0,1.39.13,2.88.74,4.44,1.16,2.98,2.59,5.75,3.15,8.68l.06.73c.01.88-.26,1.94-.27,3.15l.21,1.53c.32,1.04.22,2.3.37,3.71.23,1.93.81,3.46.8,5.04v.16l-.05,1.23.72,2.02.9,2.32-.03,1.12.19,1.8c.44,1.73,1.4,2.45,1.52,3.53.22,1.35.27,2.89,1.04,4.44,1.23,2.48,2.49,5.02,4.06,7.4,1.87,2.8,4.5,4.75,6.33,7.09l1.91,1.18c.67,3.32,3.16,5.83,4.06,8.36,1.1,2.92,1.72,6.05,2.67,9.18,2.07,6.68,5.24,12.55,8.77,18.42,2.21,3.67,3.4,7.18,3.4,11.35v.51s-.54,3.08-.54,3.08l-1.23,1.19-1.26-.42-1-.59-.36,1.1c-.06.23-.87,1.99-.9,3.37l.28,1.08,1.22.64h.04l.44.22.05.09-.1.44.19.69,2.57,4.01,1.35,3.54-.04.44c-.1.87-1.17,2.79-1.19,4.65-.06,1.18.64,2.54,2.13,3.06l1.32.53-.06-1.43-.13-1.76.1-.63.31-.16.54-.05,1.17,1.16-.24,1.13-.41,1.08,1.13.19c.69.12,2.07.18,3.29.43l1.44.49.26.19h0s-.21.43-.21.43l-.77,1.08,1.26.39,2.48,1.72,1.68.54.93-.04.33.04,1.75.44h0l1.05-.39.99-.77c1.37-1.08,3.04-2.52,4.41-3.13.82-.46,2.25-.1,4-.78l1.12-.14c1.57-.01,4.02.49,6.11.49,1.49,0,3.08-.2,3.93-1.64,1.05-2.04,4.83-3.53,7.65-3.5l1.21.1.41.05,1.46.33,1.95.13,1.51.33,1.34-.6.57-.4,2.52-.44c2.15,0,4.52.77,6.57,1.54,1.28.5,2.3.74,3.21.74,2.08-.03,3.13-1.21,4.97-2.44l1.05-.32c1.21-.07,2.98,1.14,5.09,1.22l1.61-.33,1.6-.71-1.49-.94-.48-.54.53-.79,1.34-.76,1.18-.15c1.23-.03,2.7.49,4.4.49l.87-.05c4.96-.68,9.15-4.08,12.72-6.78,4.57-3.47,8.91-7.22,13.31-10.84,3.67-3.04,5.72-7.21,8.99-9.87,4.17-3.44,7.62-6.54,10.82-11.11,1.75-2.52,3.31-5.15,4.8-7.81.8-1.49,2.57-2.72,3.37-5.01,1.03-3.18,3.39-6.29,5.75-8.93l2.16-2.03,1.44-.25.94-.46.53-.86c2.02-.33,3.37-1.95,4.24-3.64,1-1.91,1.57-4.1,1.95-5.51,1.46-5.39,3.02-10.25,4.29-15.73l1.34-1.63.36-3.06c0-1.64-.15-3.4-.15-4.62l.03-.77-1.8-.44-.2.4h0s-1.58-1.5-1.58-1.5l-.41-.41,1.04-1.12,1.29-2.58c.81-1.64,2.44-2.6,4.26-3.76,3.8-2.48,8.14-4.07,12.52-5.61,3.87-1.36,8.23-2.83,11.24-6.27,1.39-1.62,3.83-4.56,3.88-7.6l-.57-2.21-1.05-1.76c.72-2.64,2.14-5.38,2.57-8.36l.03-.52c-.05-1.69-.86-2.93-.82-3.89l.03-.19c.13-1.67.56-3.38.87-5.18l-.52-.09v-.77s-.01-.33-.01-.33l.18-2.91-1.84,2.27-.2.27c-.05-1.35-.41-2.58-.51-3.64-.28-2.44-1.47-4.69-1.43-6.53l.12-.99-.47-.14.14-2.47v-.18c0-1.61-.32-3.29-1.44-4.7l-2.03-1.9-.41-1.29.05-.85.05-.59-.13-1,.58-.82.32-1.67-.24-1.41.42.05,2.83-1.39,1.77-1.62c1.85-1.77,3.21-3.66,4.68-5.59,1.23-1.63,3.06-2.74,4.89-4.11l.77.32,1.02-.51.06-.1.06.1.8-.49.64.68.74-.99.49-.08-.22-.98-.05-.44c-.05-1.2,1.23-2.48,2.87-3.79,1.54-1.32,3.44-2.58,3.54-4.84l-.14-.94c1.32-.28,2.38-1.24,3.42-2.14l2.93-2.52c1.99-1.05,4.56-1.82,6.54-3.65l.64-.49,1.62-.28,3.26-1.44c.21-.17,1.9-.63,3.34-1.03l2.04-.69.81-.46.6-1.08v-.11s-.01-.03-.01-.03l.1-.18c.41-.6,2.04-1.61,3.62-2.5,1.62-.98,3.19-1.72,3.96-2.93l.05-.1.76,1.08.6-1.7.33-1.68c.98-1.14,2-2.31,2.83-3.94,1-2.17,3.54-3.57,4.94-6.41.19-.47,1.19-2.14,1.25-3.56l-.28-.98.37-.36.37-1-.05-.36.51-1.18-.12-.08.98-1.75.34-2.72.05-.59-1.54-2.08.33-1.72-.21-.82-.86-.53c.01-1.3.37-3.49.39-5.32l-.24-1.96-.93-1.31.51-1.93.59-3.12-.41-1.59-.33-.4.7-2.85-.16-1.27-.55-1.14-.17-.45.03-.17.2-1.27-.08-.79-.03-.06v-.04l-.15-.67.1-.36.28-1.4.05-1.12-.13-2.43c-.08-.64-.05-2.01-.16-3.3-.14-1.26-.1-2.44-1.08-3.35l.46-.51.95-1.22.42-2.58.53-1.71.67-.87-.85-.46.4-1.37-1.89-2.47v-.26c-.01-1.4-.83-2.5-1.75-3.33l-3.08-1.4-.43.04-.41-.69-1.32-1.05.06-.53-.62-1.84-.05-.18.2-1.21-.05-.52-1.13-1.95-.52-.85.08-.31.68-2.31-.44-1.22-1.32-.53-.18-1.05-.33-.85.18-.77-.81-2.45-.76-1.89-.05-.72c0-1.4.51-2.95,1.16-4.3l.44-2.43-.26-1.7-1.16-1.16.28-2.45c.13-1.36.31-2.5,1.16-3.56.69-.93,1.13-2.16,1.13-3.39l-.54-1.9-1.98-.93h-.05c-.2-1.94-1.67-3.03-2.77-3.91-1.28-.98-2.12-1.72-2.09-2.7l.04-.41.04-.4c-.1-1.34-.82-2.12-.73-2.53v-.03l.39-1.98c.44-1.44,1.1-2.83,1.76-4.29,1.31-2.89,2.45-6.4,2.86-9.6l.03-.23-.05-.24.59-.46.05.03,1.2.87.27-1.47c.28-2.06,2.9-4.1,3.03-7.32v-.2s1.08-1.41,1.08-1.41c.57-1.18,1.05-2.8,1.54-4.24.44-1.41,1.07-2.72,1.21-2.75l1.77-2.36,1.12-3.1-.12-.68-.26-1.33c.04-1.45.83-2.6,2.68-2.88,1.31-.15,3.04-.57,3.81-2.39v-.03l.05.71,1.47-1.5.73-1.9-.34-1.71.04-.09.04-.13.96.15c2.44-.1,4.42-2.22,5.39-3.57l.59-1.26c1.94-2.47,4.1-5.52,4.65-8.94l1.14-.62,2.57-3.12c1.37-1.78,2.58-3.64,3.93-5.31,2.83-3.51,5.84-6.92,8.73-10.45,2.84-3.47,6.5-6.71,9.74-10.02,2.77-2.83,6.11-5.09,9.52-7.27,8.26-5.32,14.6-11.48,20.79-19,3.06-3.71,6.08-7.49,9.09-11.24,2.81-3.56,4.39-7.8,6.68-11.3,2.42-3.71,5.1-7.42,6.86-11.71,1.73-4.3,1.91-8.61,3.93-12.31,1.54-2.85,3.88-5.44,5.14-8.89.57-1.85.08-3.34.54-4.19.36-.92,1.34-1.13,2.54-2.4,2.49-3.06,2.27-7.15,3.92-9.47,1.53-2.3,3.3-4.52,4.15-7.5.63-2.21.72-4.42.72-6.58l-.03-3.39v-.26l.41-1.12,1.41-.22h1.03l1.62-.22,1.26-1.49.18-.9-.87-.22Z"/>
  <path class="st4" d="M1127.52,1607.18h0l-1.31-.26-.69-.2h-.39s-.62.04-.62.04l-2.39-.8-.42-.37-1.63-1.13-1.29-.4-.72-.69.15-.99.28-.38-.36-.08-2.16-.31-1.08-.13-1.13-.19h-.04s-1.01.68-1.01.68h-.04l-.4-.08-1.34-.51c-1.72-.62-2.9-2.31-2.83-4.12.03-1.35.51-2.69.87-3.66l.33-1.08.05-.31c0-.49-.2-1.39-1.2-2.98l-.54-.8c-.88-1.3-1.71-2.52-2.09-3.29l-.27-.93-1.53-1.1-.41-1.59c0-1.34.58-2.77.85-3.47l.45-1.36.66-.69.93.08,1.01.59.65.28.28-.54.44-2.66.03-.55c-.03-3.7-1.01-7.03-3.26-10.74-3.31-5.5-6.68-11.56-8.86-18.65-.39-1.26-.72-2.52-1.05-3.75-.49-1.89-.95-3.67-1.59-5.37l-1.59-2.98c-.87-1.44-1.87-3.03-2.39-4.91l-1.85-1.41-2.54-2.72c-1.31-1.32-2.69-2.7-3.83-4.39-1.53-2.31-2.75-4.75-3.93-7.12l-.21-.41c-.67-1.39-.85-2.7-1-3.87l-.13-.88-.49-1.1-1.01-2.34-.22-2.07.02-1.12-.69-1.65-.94-2.72.03-.68.03-.51-.37-2.7-.41-2.36-.1-1.52-.23-2-.26-1.85.17-1.9.11-1.23-.05-.53c-.38-2-1.21-3.94-2.08-6.01l-1.02-2.5c-.73-1.9-.82-3.67-.82-4.83l.06-1.9.05-1.77-.08-1.44-.08-.92c-.18-1.59-.33-3.24-.33-4.55l.09-1.34.17-.72.74-3.7-.08-1.05c-.11-2.65-1.67-5.36-2.94-7.17l-.89-1.19-2.05-3.02-.9-2.2-.72-1.63c-2.92-3.7-4.39-7.71-5.82-11.59-.91-2.49-1.79-4.83-2.99-7.05-1.13-2.13-1.99-4.46-2.83-6.72-1.46-4.01-2.85-7.78-5.55-10.17-4.16-3.73-6.19-9.04-6.18-16.29l.12-3.39v-.74c0-2.17.21-4.29.41-6.36.21-2.02.41-3.93.41-5.82l-.14-2.52-.09-.3-.38-1.79.26-1.35,1.68-2.31.62-.75.42-2.09.06-.57.72-1.86.12-.22.21-.33-.11-.99c.04-1.77.84-3.94,1.48-5.69l.72-2.16.26-2.54c.08-1.95.18-4.16,1.5-6.3.09-.13.27-.55.42-2.31l.05-.5,1.41-3.58,3.53-4.27.5-1.62.43-1.67c.49-1.61,1.94-3.42,4.58-3.58l.86-.53.55-1.07.8-1.54c1.67-2.91,2.67-7.21,2.67-11.48,0-1.84-.19-3.62-.57-5.15-.53-2.22-1.36-3.75-2.72-5.82-1.22-1.84-1.63-3.38-2.03-4.87l-.54-1.86-.4-.69c-.41-.62-.96-1.47-1.17-2.68l-.12-1.54-.3-1.86-.08-.17-.13-.03-.87-.95-.13-1.4-.44-2.09c-.05-1.59.95-3.11,2.54-3.88l.44-.46,1.42-.95h0s.04-.9.04-.9c0-1.95-.5-3.79-1.51-5.65-1.13-2.08-1.89-4.16-2.62-6.19l-1.08-2.9-.69-2.95-.26-1.44-1.59-2.44-1.73-2.29-.27-.47c-.8-1.37-2.26-3.94-2.31-6.31l.46-1.94-1.67-2.79-.03-.05-.81-2.35.4-2.29.1-.37-.08-.51-.32-.67-1.04-2.7-1.23-1.03-.9-1.8-.59-2.18-.16-.59c-.67-2.61-3.75-5.42-6.24-7.68l-.82-.74c-2.2-1.76-4.03-4.73-5.5-7.12l-1.19-1.89c-1.76-2.71-4.38-5.15-6.91-7.5l-2.39-2.25-.86-.85-.28-.48-2.08-2.89-.9-1.7-1.21-2.14-1.34-1.72-.1-1.19.49-.46-.03-.28-1.23-2.26-.98-1.57.13-1.26-1.31-2.58-.21-.45-.49-.92-.14-.15-1.3-3.47.49-2,1.62-3.11,1.21-.55.85,1.01.03.55.33.19.74.68,1.19-2.43v-.33s-.09-1.58-.09-1.58l-.15-2.43c0-1.31.15-2.92,1.36-4.16l-.23-.28-.9-2,1.12-2.16,1.53-.59.62-.06-.15-1.58.03-.46-2.47-1.9-.32-1.44c.05-1.64.94-2.83,1.71-3.85l.85-1.05.71-.89.67-1.92.83-1.49.44-2.47c.01-1.05.04-2.21.33-3.44l-.15-1.67c0-.95.13-2.02.41-3.24l.18-.8c.31-1.31.61-2.54.59-3.62l-.49-2.08-.44-.64-.42-.57-.94-2-.33-.19-1.54-2.66.03-.35-2.06-1.14-2.52-1.17-1.67-2.38-.44-2.03-.21-1.12h0l-.87.12c-1.36.18-2.47-.13-3.21-.87l-.64-.93-.49.3-3.05.83-.41.05c-1.01.15-2.67.44-4.15.26l-1.57.95-.62.14-.64.13-.44-.04-.18.1-1.93.59-.8-.27-.2-.22-.08.2-.59.6h-.85l-.64-.27-1.57.69h0l-.96-.21-.94,1.03-1.18.28-.72-.98v-.23l-.86-.04-.46-.03-.35-.04-1.77.78h-.03l-1.8-.71-1.12-.59-.22-.15-.8-.54c-2.16-1.07-3.42-3.01-4.27-4.6l-.26-.46c-.59-1.1-1.34-2.47-1.36-4.19v-.22l-.22-.09-.5-.69-.23-.95-.18-1.34.03-.41-.56-.26-1.34-2.13.11-.62-.75-1.03-.05-.13-.57-1.28c-1.22-2.83-4.19-6.14-7.04-6.85-1.64-.41-3.57-.62-5.14-.53l-.86.11-2.62.15h-.03l-1.12.15-2.77.13h-1.75l-1.77.06-.54.22-.92.02-.9.21-.76-.1c-1.24.1-2.74.31-3.68.52-2.8.54-4.96.92-6.99,1.19l-1.85.24-2.21.95-.59.57-.19.17-.51.45c-.57,1.75-2.09,3.7-4.64,3.7l-.55-.04-1.4-.59-2.41.75c-3.11.54-5.42,2.04-8.09,3.79l-2.76,1.76c-1.66.96-3.3,1.34-4.75,1.66l-2.59.75-1.45.54-2.37,1.05-.87.81-2.52,1.96c-2,1.05-4.02.66-5.5-.93-.59-.61-1.2-.79-2.49-1.15l-.83-.25-1.07-.22-1.18-.23-1.92-.95-1.15.36-1.17-.36-.1-1.21.05-.1-.46-.48-2.52.99-.26.03-3.14-.8-.62.08-1.9-.5h-.44c-2.77.17-5.38.6-8.5,1.17l-2.54.08-.23.05-3.08.26c-2.67.18-5.22.36-7.35,1.31l-2.76,1.46c-1.94,1.13-4.12,2.43-6.82,2.72l-5.36,2.72c-.63.59-1.57,1.34-2.85,1.36l-.95-.15-.64.04c-1.99-.01-3.51-.86-4.74-1.55l-2.06-.82c-1.28-.44-2.75-.91-4.12-2-1.22-1.02-2.66-1.8-4.2-2.65-2.05-1.13-4.19-2.29-6.06-4.12-1.64-1.63-3.11-3.39-4.52-5.09-1.51-1.84-2.95-3.56-4.57-5.09l-2.18-1.13c-1.22-.6-2.72-1.35-3.84-2.22l-1.63-2.03-1.3-.88-.62-.5-1.09-.83c-1.31-.62-2.27-1.44-3.03-2.6l-.33-.51-1.08-1.39c-2.39-1.08-9.35-4.86-11.05-6.22l-.26-.31-2.91-.85-1.2-.41-.97-.31-.67-.57v-.89s.69-1.69.69-1.69l.59-.59h.03s-.03-.05-.03-.05l-.54-1.09-.55-2.13-.27-1.59-1.78-.78c-1.12-.76-1.77-1.97-1.77-3.21l.58-2.07.03-.03-.36-1.71.28-1.41-.5-.79-.23-1.8-.04-.49.04-.54-.09-.8-.03-.21-.4.04-.93-.37-.22-.97.21-.87-.41-.57-.82-.59-.57-1.07-.23-1.31h-.05s-1.09-.29-1.09-.29l-.71-.58v-.93s.05-.13.05-.13l-.51-.32-1.71-2.11-1.03-.14-.94-1.02-.55-.36-.71-.39-1.95-1.27-1.13-1.62-1,.08-.99-.49-.04-1.12.2-.4-.08-.24-.34-1.54-.77-.13c-1.62-.21-2.6-1.61-2.73-2.86l-.2-.78-.49-1.55-1.28-.06-2.26-1.81-.41-.99.64-.85.09-.15-.14-.88.26-1.45-.69-1.66-2.31.51-.82.13-1.23.3-.94-.22-.4-.88h0s-1.22-.79-1.22-.79l-.55-.39-.77-.02-.59-.59-1.05-2.65v-.82l-1.62-.98-.23-.19-.9.12-.69-.62-.41-1.03-.35-.53-.68-1.99.31-1.28-.08-.87.08-.87-.36-1.58.67-3.1.08-.24-.67-3.15.1-1.13.36-.62.39-.6,1.17-.91.57-.33-.35-.31-.2-.64-.55-.64-.19-.62-.57-.59-.02-.09-.1-.58c.01-1.34-.41-3.57-1.36-5.65-.76-1.69-1.81-3.03-2.8-3.6l-.08.08-1.34,1.23-1.13.22-.69-.9-.21-1.84-.03-.39,1.16-2.56,1.71-1.14.71-.35,1.34-.68c2.36-2.36,4.08-5.52,5.1-7.76l.5-1.55.82-2.66.42-1.23c.12-4.52,1.66-8.45,3.15-12.25,1.24-3.16,2.43-6.14,2.7-9.3l.15-2.94c0-2.68-.36-5.33-.72-8.13l-.28-2.34c-.12-1.23-.23-2.29-.7-2.88l-.72-.8c-.87-.81-2.04-1.93-2.31-3.88l-.13-1.44.38-.95.87-.23-.19-1.28c.01-1.37.63-2.66,1.84-3.82l.69-.68.2-.28.3-.91-.91-3.06-.72-.22-1.21-.91c-1.31-1.01-1.95-2.3-2.4-3.48l-.35.39-.82.15-.51-.1-.46.26-.82.1-.67-.51c-.57-1.03-.86-2.22-.86-3.64.01-2.22.69-4.51,1.3-6.53l.72-2.8c.49-2.89,1.23-5.02,2.4-6.94.86-1.4,1.97-2.14,2.85-2.74l.39-.28,1.48-1.77.23-1.04.33-1.46,1.83-3.04.03-.17.02-.29.73-2.38.68-.94,1.8-2.63.69-1.18-.64-.32-.5-1.44c1.53-3.3,4.46-5.82,7.03-8.04l2.99-2.75c2.25-2.26,2.74-4.57,3.37-7.5.35-1.62.74-3.47,1.5-5.47l.67-1.72c1.39-3.78,2.98-8.04,7.21-10.48,4.41-2.54,6.26-4.21,7.93-8.58.5-1.31,1.15-2.82,1.72-4.11l.08-.15-.23-.31.15-1.16,1.26-1.54.32-.33.22-.15.18-.13.22-.31,1.52-2,.18-.2,1.19-.9c1.65-.6,3.19-.84,4.68-1.07l2.26-.4c3.52-.77,7.48-1.9,10.26-4.59,2.02-1.93,4.07-3.58,6.08-5.19l3.29-2.68c2.21-1.88,4.05-4.31,5.98-6.88l1.44-1.88c1.26-1.58,3.06-4.8,3.01-6.55l-.4-1.03-.5-.33-.64-.42-1.28-2.45.49-1.85c.49-.98.51-2.08.57-3.49l.04-.77c.24-5.68,2.58-8.5,5.54-12.05.73-.87.87-1.84,1.05-3.16l.54-2.8c.72-2.36,2.43-3.93,3.79-5.19l2.33-2.3c1.93-2.02,3.93-4.1,6.84-5.41,1.37-.62,2.76-1.19,4.14-1.76,2.58-1.05,5.01-2.04,7.27-3.34,6.37-3.57,9.76-12.81,12.49-20.22l.1-.31.17-.5,1.58-3.65c.36-.46,1.03-1.36,2.39-1.43h.22s.32.01.32.01l2.48-.8,1.57-.44c1.26.03,2.27.78,2.84,2.07l.44,1.14.15.44c.69,1.67,1.5,2.7,2.99,3.75,1.76,1.23,3.16,1.5,4.71,1.52,1.09,0,2.27-.15,3.65-.33l1.23-.15c1.26-.14,2.49-.04,3.67.06l1.89.12c1.66-.05,2.32-.28,3.01-1.53l1.22-.53,1.77.44.82,1.18.12.82.31.23.22.26.33.37,1.21.15,1.68-.41,1.99.6c2.57-.08,3.67-.64,6.2-1.94l.5-.24,1.1-.51.51-.23.51-.57.13-.22c.64-1.14,1.47-2.58,3.21-3.51l.41-.24c.6-.4,1.62-1.04,2.9-1.11h0l1.31.28.84-.73,2.4-.98,2.39.57.51.18.27-.51c3.11-6.09,12.03-8.07,17.1-8.71l3.15-.46c2.05-.35,4.17-.69,6.38-.71l1.26.04,1.8-.77.36-.2c.82-.51,1.85-1.16,3.26-1.18l1.21.18.5-.21.12-.02.35-.05.53-.04,1.03-.04h.31c1.31-.05,2.03-.1,2.16-.13,2.77-1.11,5.65-1.06,8.3-1h3.24c3.03-.01,4.55,1.16,6.45,2.63l.64.32.94-.57c.86-.62,1.86-1.31,3.27-1.49l.55-.05,1.95-.23,1.17-.23,1.05-2.08,2.05-.67c1.71.05,3.26.87,4.03,1.35l2.62.89,1.35-.42.12-.24,2.5-1.71h.24s1.16.19,1.16.19l2,.77,1.18.44,1.91-.06.98.54.14.58,3.01-.26,2.38-.26.71-.28.55-.13.37-.05.24-.04.22-.03c2.16-2.27,4.5-3.17,6.71-3.79l.65-.23,2.84-.66,1.54.28,1.18.77.34.06,1.63.39c1.03.41,1.82,1.28,2.4,2.64l.24,1.14v.22s.85,1.46.85,1.46l1.09-.92.4-.33,1-.91.23-.18,2.24-.95,1.1.22c1.44.62,2.4,2.07,2.34,3.61l-.77,2.68c-.76,1.34-1.93,2.38-3.04,3.39l-.83.75c-1.93,1.72-1.95,2.45-1.95,2.45v.23c-.02,1.28.9,2.98,1.9,3.49,1.58.86,2.5,1.36,3.24,2.43.64.95.82,1.85,1.08,3.11l.14.68.19,1.92c-.03,3.83-2.3,7.9-6.06,10.9l-2.21,1.53-1.62,1.12-1.22,1.61.68,1.69,1.89,1.84.22.04.39-.12,1.52-2.3,2.17-.5.32.03,2,.42,1.49,2.44-.27,1.17,1.04,2.5-.03.42h-.03s.41.51.41.51l.21.26.49.76.59.05.86.1.55.39.58.41.18.12,3.07,1.55,3.42,1.68c1.72,1.05,3.75,1.45,5.92,1.22l2.02-.5c1.03-.35,2.18-.73,3.6-.76l2.38.42,2.92.76c1.38.28,2.82.56,4.29,1.19,1.21.53,2.24,1.19,3.16,1.79l2.52,1.43,1.69.22c1.31.03,2.94.08,4.5,1.05,2.57,1.8,3.07,4.59,3.43,6.63l.06.33c.43,2.44,1.29,4.01,2.93,5.45,2.14,1.87,4.83,2.11,7.96,2.38,1.28.12,2.63.22,4.03.47,4.89.9,11.56,3.01,15.59,6.26l2.17,1.99c1.94,1.82,3.76,3.57,5.68,3.57l.5-.02c3.93-.31,8.43-4.16,9.22-7.93l.05-.46-.81-2.38-.88-2.04c-.44-1.3-1.02-3.25-1.02-5.33l.46-3.03c.82-2.42,2.93-5.01,5.95-7.3,3.03-2.26,6.09-3.57,8.63-3.67l2.02-.67c.91-.46,2.04-1.04,3.57-1.21,2.58-.21,5.15-.14,7.21.36,1.85.46,3.45,1.17,5.01,1.85l2.16.92,2.57,1.52.87,2.61v.91s0,.47,0,.47l.55.28,2.25.41c2.13.17,3.74.83,5.17,1.43l2.27.82c.89.26,2.17.26,3.51.18,1.36-.06,2.84-.08,3.99.13,1.53.33,2.56,1.41,3.29,2.31l.71,1.08.14.05.66.95.08,1.77h0l2.34-.49,3.16-.46c1.39.01,2.64.23,3.87.45l2.25.35c3.61.36,7.04,1.18,9.92,1.95,1.28.34,2,1.18,2.44,1.69l.57.57,2.18.05.33-.02.27-.03c1.32.05,1.99.77,2.33,1.13l.32.32,1.56.15,1.05.09c2.17.23,3.85,1.03,5.35,1.71l3.18,1.16.62.04c1.52,0,3.38-.95,5.59-2.85l2.97-2.85.59-.59,1.44-.1.59.46.51-.78.28-1.31.62-.77,1,.06,1.12.67.26.05.91-.33,2.88-.85.51-.33,1.57-.26c1.51,0,2.64.63,3.54,1.13l.21.1,1.7.72.28-.03.46-.2.54-.27.52-.19,1.62-.35h.01l1.3.22c1.21.44,1.85,1.28,2.33,1.9l.87,1.08h.01c1.41.39,2.4,1.1,3.21,1.67l.36.27,2.08.84h.41l.74-.32,2.25-.53,1.68.54,2.69-.28,1.9-.21c1.45-.44,3.22-1.08,4.52-2.2l1.01-.88.97-.23.75.67,9.76,25.71-.17,1.05-.32.42c-.98,1.16-1.31,3.33-1.66,5.61-.3,1.93-.6,3.91-1.31,5.68-.59,1.41-.65,2.18-.65,3.62v1c-.02,1.44-.59,2.44-1.05,3.24l-.11.2-.66,1.36-.45,1.21-1.53,1-1.34-.13-1.7-1.08-1.87-1.08-.64-.47.03.09-.18.98.08,1.1-.02.59.02.32c1.65,1.59,2.63,3.48,3.57,5.77l.97,1.66.49.75.46,1.53-.44,1.67-.07.12.23.32.34.44.87,1.26,1.41,2.6,1.41,2.62,1.93,3.65c2.34,4.43,4.75,9.02,7.01,13.64.61,1.26,1.46,2.36,2.39,3.53l1.62,2.17,1.72,1.55c.97.68,2.18,1.53,3.11,2.94l.87,1.39.02,1.08-.9.58-1.6.09-1.76-.08-.03.87c-.01,1.94.37,3.6.78,4.42l.23.05.75.8.38,1.66c.57,2.35,1.9,3.06,4.6,4.48l.2.1c1.8.97,3.08,2.5,4.21,3.85l2.39,2.39c1.8,1.22,2.81,2.71,3.03,4.44l.1,1.25.38,2.4,1.95,2.89.18.22c.92,1.16,2.34,2.86,2.47,5.21l-.95,1.13-.47.05c.68,1.76,1.03,3.39,1.03,4.88l-.06,1.14-.13,1.95c0,1.68.26,3.4.51,5.23.25,1.57.49,3.21.59,4.96.07,1.44.38,3.79,1.03,5.72.62,1.93,1.53,3,2.11,3.07,1.7.39,2.83,1.59,3.92,2.75l.6.62,2.03,2.08.68-.59,1.14-.18.66.95.09,1.59.14.08.49.24,1.71.99,1.39,2.31c3.53,7.09,5.9,13.62,7.45,20.5l.31,1.9.67,2.75.41.8c.7,1.39,1.41,2.82,1.77,4.71l.33.27.91.78,1.1-.42.55-.05c1.26.01,2.44.7,3.21,1.88l.98,2.67,1.07,2.39.23-.13,1.95-.46h.01l3.08,1.5,1.05,1.34.54.65,1.16.5c3.34.47,4.88,2.84,6.11,4.75l.95,1.44c1.18,1.79,2.21,3.35,3.74,4.3l2.24,1.71,2.08,1.31c1.86,1.28,2.25,3.22,2.48,4.5l.17.74h.03s.19.08.19.08l2,1.14.99,1.35.69.99.58.77.77-.65.98.27,1,.94.46.45c.65.62,1.4,1.31,1.52,2.7v.27l.78,1.17.89,1.31c.92,1.49,1.85,3.08,1.87,4.96l-.98,2.87c-.88,1.07-2.34,1.99-3.81,2.76l1.94,1.41c2.84,1.72,4.65,4.6,6.27,7.15l2.08,3.07c1.75,2.2,4.03,3.3,6.78,3.31,1.13,0,2.28-.21,3.48-.59,1.13-.36,3.04-1.5,5.15-3.06,1.85-1.39,3.26-1.95,4.86-1.95l2.75.31.8.14,1.4.24,2.49.33c.83,0,1.63-.18,3.02-1.03l1.32-1,1.76-1.36c1.23-.87,2.93-2.08,4.88-2.13h0l1.3.22c2.16.76,3.09.75,5.1.07l1.51-.59c.95-.39,2.03-.84,3.22-1.1l1.46-.15,2.59.41,1.29.26.43.02c1.3,0,2.53-.61,3.96-1.31l2.03-.95c1.51-.59,3.01-.77,4.3-.95,1.35-.18,2.52-.32,3.48-.83l1.36-1.66.18-.28c.54-.92,1.21-2.09,2.62-2.81l2.27-.45c1.45,0,3.04.36,4.39,1,1.97.98,2.98,2.3,3.02,3.96l-.13,1-.07.26c-.6,2.18-1,3.64-1,5.32l.22,2.26c.21,1.27.44,2.62.44,4.03l-.05,1.12,1.51.63.9.21.81,1.28-.18.9-1.99,2.31-1.94.28-1.04-.02h-.03l-.69.05v.23l-1.1.23h1.09v1.64s.04,1.75.04,1.75c0,2.16-.1,4.5-.77,6.86-.77,2.7-2.18,4.74-3.54,6.72l-.76,1.1c-.63.87-.96,2.15-1.32,3.51-.51,1.94-1.1,4.15-2.66,6.04l-1.62,1.41-.73.69-.18,1.26-.36,2.85c-.84,2.34-2.09,4.24-3.31,6.05l-1.87,3.04c-1.08,1.95-1.62,4.14-2.18,6.43-.46,1.86-.92,3.8-1.72,5.75-1.49,3.64-3.6,6.85-5.65,9.94l-1.3,1.96c-.91,1.39-1.7,2.89-2.53,4.47-1.21,2.33-2.48,4.73-4.21,6.91-3.02,3.78-6.04,7.54-9.11,11.27-6.87,8.34-13.36,14.27-21.04,19.22-3.22,2.07-6.59,4.31-9.32,7.12l-3.17,3.13c-2.26,2.2-4.6,4.48-6.5,6.82-1.31,1.59-2.64,3.17-3.98,4.75-1.62,1.9-3.21,3.78-4.75,5.7l-2.15,2.85-1.77,2.41-.4.54-2.31,2.75-.91.62c-.72,3.3-2.71,6.19-4.61,8.63l-.67,1.35c-.85,1.17-3.03,3.76-5.97,4.03l.06.68-1.04,2.67-1.48,1.51-.67.33c-1.1,1.21-2.66,1.55-3.84,1.7l-1.73,1.82.2.91.18,1.08c-.04,1.35-.67,2.58-1.26,3.64-.71,1.21-1.35,2.05-1.97,2.59l-.94,2.3-.3.91c-.4,1.21-.81,2.47-1.3,3.48l-.18.3-.82,1.18c-.15,2.03-1.13,3.6-1.91,4.88l-1.09,2.26-.28,1.52-.67.8-1.03-.13-.18-.13c-.46,2.93-1.49,6.28-2.88,9.34l-.31.68c-.54,1.21-1.05,2.34-1.4,3.47l-.34,1.71.13.27.62,2.16-.05.66-.03.24,1.67,1.84c1.06.84,2.5,1.97,3.03,3.77l2,1.31.73,2.52c-.01,1.47-.51,2.93-1.36,4.06-.63.78-.81,1.62-.94,2.99l-.05.55-.12,1.21.99,1.41.32,2.03c-.01,1.19-.19,2.13-.53,2.88-.69,1.44-1.05,2.8-1.05,3.85l.02.55.66,1.57.19.4.72,2.49-.06.77.21.69.06.32,1.15.72.75,1.98-.67,2.48-.03.06.18.19.13.18,1.23,2.24.08.77-.15,1.1.62,2.03,1.05,1.05.14.19c1.21.06,2.38.62,3.61,1.66,1.26,1.12,1.98,2.35,2.12,3.67,1.16.62,1.91,1.83,1.91,3.2l-.1.89.54.72-.21.9-.69.87-.28,1.13-.02.38-.49,2.49-.97,1.41.67,2.62.06.54.09,2.08.05,1.23.14,2.54-.05,1.21-.35,1.67-.02.08.08.24.06.23.09,1.01-.19,1.4.63,1.3.23,1.59-.53,2.68.57,2.15c-.01,1.21-.34,2.39-.64,3.44l-.35,1.23.77,1.39.28,2.27-.23,3.28-.13,1.34.69.72.35,1.34-.14,1.09,1.34,2.71-.05.74-.13,1.12-.23,1.68-.87,1.82-.05.19-.38.91v.18l-.54,1.62.09.72c-.05,1.41-.73,2.8-1.14,3.62l-.18.36c-.85,1.72-1.99,2.91-3.01,3.95l-1.98,2.52c-.82,1.64-1.84,2.85-2.75,3.93l-.36,1.62-.62,1.68-.87.71-.98-.39-2.57,1.72-.8.46c-2.3,1.31-3.01,1.9-3.21,2.11l-.98,1.72-1.08.62-2.16.72-.5.15-2.61.77c-1.01.64-2.24,1.18-3.49,1.56l-1.57.3-.26.24c-1.54,1.4-3.37,2.22-4.99,2.94l-1.8.86-1.93,1.64-.77.71-2.93,2.08v.2c-.1,2.49-1.87,3.98-3.31,5.17l-.59.51c-2.11,1.67-2.52,2.49-2.49,2.9l.03.26.21.99-.17.85-.68.45-.49.57-.88.44-.85-.26-.05-.05-.07.03-.13.08-1.49.6-.76-.12-.68.49c-1.32.95-2.57,1.85-3.42,2.98l-.46.6c-1.28,1.71-2.62,3.45-4.34,5.11l-.2.19-1.63,1.49-2.61,1.49.03.41-.44,2.11-.4.73.04.66-.05.73-.03.71.05.55.23.12,1.91,1.85c1.12,1.44,1.67,3.19,1.66,5.37l-.05,1.03-.05.87.41,1.16-.08.72.62,2.93c.31,1.05.67,2.24.8,3.47l.17,1.1.46-.57,1.25-.33.69,1.08-.18,3.11.51,1.12-.33,1.79-.54,3.31.26,1.28.57,2.67-.05.66c-.28,1.99-.95,3.8-1.59,5.56l-.87,2.54.8,1.34.74,2.77c-.08,3.49-2.72,6.63-4.14,8.31-3.11,3.53-7.46,5.07-11.3,6.44l-.42.15c-4.6,1.62-8.7,3.16-12.29,5.5l-.44.28c-1.58,1-2.83,1.8-3.44,3.03l-.39.82-.95,1.89-.43.57.43.45.49-.03,1.8.42.84,1.17-.03.67.06,1.97.09,2.66-.42,3.39-1.41,2c-.8,3.35-1.67,6.42-2.6,9.66-.54,1.85-1.08,3.72-1.59,5.65l-.06.23c-.38,1.44-.96,3.6-1.98,5.5-1.14,2.2-2.63,3.57-4.41,4.06l-.64.8-1.32.64-1.22.23-.28.04h-.01s-1.53,1.66-1.53,1.66c-2.95,3.29-4.78,6.09-5.57,8.58-.54,1.59-1.48,2.7-2.29,3.66l-1.13,1.5c-1.27,2.26-2.96,5.16-4.9,7.94-3.41,4.88-7.15,8.14-11.01,11.32-1.51,1.23-2.77,2.84-4.11,4.54-1.44,1.82-2.93,3.71-4.88,5.33-1.27,1.04-2.54,2.11-3.8,3.16-3.08,2.58-6.27,5.23-9.53,7.72l-.72.54c-3.55,2.7-7.59,5.77-12.52,6.45l-1.01.06-2.65-.3-2.6-.09-.72.37,1.08.7.49.99-.64.91-1.61.72-2.04.41c-1.34-.03-2.52-.45-3.46-.8l-1.55-.41-.51.13-1.08.74c-1.29.95-2.52,1.85-4.5,1.87-1.05,0-2.16-.24-3.61-.8-2.53-.98-6.15-1.95-8.3-1.13l-.2.17-2.02.94-1.95-.41-.93-.05-.72-.03-1.72-.36-.28-.03-.95-.08h0c-2.8,0-6.01,1.4-6.77,2.89-1.3,2.21-3.8,2.22-4.87,2.24l-3.57-.27-2.53-.23-.73.06-2.85.58-1.03.16-3.53,2.44-1.22.98-.54.41-1.7.59ZM1125.44,1604.53l.6.08.86.26.64.14.37-.17.48-.37,1.22-.96c1.25-.99,2.66-2.11,3.89-2.68l1.87-.4,2.18-.41,1.46-.22,2.88.23,3.3.27c1.68-.03,2.52-.33,2.97-1.1,1.28-2.47,5.4-4.03,8.48-4.03l1.5.1.4.06.31.09,1.03.22h.68s1.7.22,1.7.22l1.07.26.49-.2,1-.72c2.9-1.1,7.04.01,9.89,1.1,1.18.45,2.06.66,2.83.67,1.26-.03,2.03-.59,3.21-1.46l1.14-.81,1.63-.5h.03l2.36.55,2.76.67.86-.14-.73-1.18.91-1.71,1.72-.98,1.49-.22,2.11.24,2.29.27.72-.05c4.37-.59,8.17-3.48,11.51-6.02l.71-.54c3.22-2.45,6.4-5.1,9.47-7.66,1.26-1.07,2.54-2.12,3.8-3.17,1.77-1.46,3.18-3.26,4.55-5,1.36-1.71,2.75-3.48,4.46-4.87,3.73-3.08,7.34-6.22,10.6-10.88,1.89-2.7,3.53-5.54,4.75-7.72l1.39-1.87c.73-.87,1.49-1.76,1.9-2.96.9-2.8,2.8-5.75,5.97-9.3,1.27-1.54,2.02-2.29,2.81-2.39l.4-.05.91-.17.54-.24.16-.27.87-.83c1.35-.23,2.5-1.26,3.45-3.06.89-1.7,1.43-3.65,1.81-5.06l.05-.23c.53-1.95,1.07-3.83,1.59-5.68.97-3.37,1.87-6.54,2.7-10.02l.59-.74.74-.93.33-2.79-.09-2.53-.06-2-.21-.05-.59.24-.67-.16-1.83-1.71-.38-.39-.31-.85.46-.77.75-.82.82-1.59.41-.91c.88-1.79,2.51-2.81,4.24-3.92l.41-.26c3.8-2.48,8.01-4.06,12.74-5.73l.44-.14c3.58-1.27,7.65-2.72,10.36-5.82,1.23-1.46,3.56-4.21,3.61-6.91l-.42-1.62-1.04-1.77-.13-.83,1.08-3.16c.59-1.64,1.22-3.35,1.47-5.07l.03-.36-.44-2.03-.38-1.91.03-.27.57-3.5.15-.82-.37-.8v-.8s-1.01.23-1.01.23l-.85-.9-.28-2.08-.23-1.49-.73-3.07c-.37-1.24-.73-2.43-.71-3.57v-.3s-.36-.84-.36-.84l.1-1.74.04-.73c.01-1.82-.4-3.15-1.21-4.19l-1.5-1.44-.39-.31-.77-2.06.05-1,.03-.49-.08-.72.35-1.1.27-.36.26-1.31-.18-1.01.21-1.12,1.09-.33,2.22-1.08,1.54-1.39.22-.23c1.59-1.52,2.81-3.13,4.11-4.84l.47-.6c1.04-1.39,2.41-2.39,3.88-3.44l1.22-.89,1.43.1.17-.12.08-.1.75-.39.38-.23,1.08-.03.09-.13v-.06s-.09-.63-.09-.63c-.08-1.72,1.54-3.26,3.27-4.66l.6-.5c1.26-1.06,2.47-2.06,2.53-3.55l-.09-.59.1-.85.72-.52,2.82-1.82.82-.74,2.44-2,1.87-.9c1.54-.69,3.13-1.4,4.42-2.57l1.31-.78h.13s1.23-.24,1.23-.24l3.01-1.31c.19-.18.64-.33,3.12-1.03l.49-.13,1.9-.64.59-.32.17-.26.02-.36.28-.57c.28-.41,1-1.14,3.97-2.81l.8-.46c1.22-.72,2.27-1.33,2.76-2.11l.92-.54.4.05.27-1.39.26-.64.18-.22c.89-1.03,1.8-2.09,2.49-3.49l2.36-3.07c.95-.99,1.93-2,2.58-3.34l.22-.46.93-2.67-.1-.32.18-1.42.19-.18.18-.33.04-.8.31-.74v-.03l.32-.85.68-1.23.18-1.37.15-1.3.04-.38-.6-1-.77-.49-.13-.89.31-1.45-.05-.22-1.03-1.12.18-2.25.21-3.06-.18-1.63-.49-.72-.47-1.08.53-2.08.57-2.82-.24-1-.39-1.48.58-2.35-.13-.96-.37-.79-.37-1.05.05-.51.16-.98-.05-.59-.18-1.06.17-.65.22-1.12.05-1.03-.14-2.33-.06-1.4-.08-1.93-.05-.54-.69-2.09-.13-1.45.59-.64.17-.18.53-.69.31-1.8.03-.44.67-2.17-.28-.5.13-.86.23-.78-1.08-1.43-.81-1.17-1.39-2.64-2.38-1.13-.2.03-1.2-.6-.32-.53-.85-.69-.63-1.28.03-.22-.43-1.25-.23-.61.08-.7.11-.74-.04-.23-.77-1.33-.13-.17-.75-1.63.17-.68.11-.24.46-1.63-.16-.46-.51-.17-1.07-.9-.04-.24-.14-.79-.19-.5-.03-1.08.04-.23-.53-1.64-.18-.39c-.7-1.37-.82-1.93-.85-2.24l-.05-.82c0-1.77.69-3.57,1.26-4.78l.33-1.95-.2-1.31-.42-.5-.79-1.26.23-1.79.05-.57c.13-1.41.33-2.8,1.37-4.11l.91-2.74-.35-1.25-1.01-.49-1.21-.98c-.14-1.41-1.28-2.29-2.27-3.07-1.23-.95-2.66-2.04-2.61-3.69l.05-.54-.39-1.57-.31-1.41.44-2.11c.38-1.26.92-2.47,1.49-3.72l.31-.67c1.39-3.1,2.41-6.47,2.77-9.3l.55-1.3.3-.23,1.29-.24,1.34-2.84c.77-1.25,1.57-2.53,1.62-4.1l.54-1.1.54-.76.15-.27,1.16-3.16.3-.89c.66-2.09,1.17-2.9,1.54-3.22h0c.3-.26.81-.83,1.56-2.08l.95-2.58-.05-.3-.31-1.69c.05-2.17,1.36-3.6,3.6-3.96,1.67-.2,2.53-.69,2.97-1.72l.24-.38,1.01-.28.5-.51.41-1.13-.28-1.34v-.74l1.46-.87.57.09c2.13-.09,3.89-2.2,4.55-3.12l.44-.93.18-.39c1.9-2.39,3.93-5.27,4.44-8.43l.89-.9.6-.33,1.98-2.39.45-.62,1.73-2.34,2.21-2.97c1.54-1.93,3.16-3.83,4.78-5.74,1.34-1.57,2.66-3.13,3.95-4.73,1.99-2.42,4.37-4.75,6.68-6.99l3.13-3.11c2.89-2.95,6.37-5.29,9.71-7.42,7.48-4.8,13.81-10.61,20.52-18.75,3.06-3.72,6.08-7.48,9.08-11.25,1.61-2.01,2.82-4.33,3.99-6.56.82-1.55,1.67-3.17,2.63-4.64l1.3-1.99c2-3.01,4.06-6.11,5.47-9.54.72-1.82,1.18-3.67,1.62-5.47.59-2.44,1.16-4.75,2.36-6.95l2-3.21c1.13-1.71,2.31-3.48,3.06-5.52l.24-2.2.37-2.14,1.43-1.55,1.27-1.07c1.21-1.48,1.7-3.35,2.18-5.18.41-1.54.81-3.01,1.64-4.19l.74-1.1c1.34-1.9,2.58-3.72,3.25-6.06.6-2.11.68-4.26.68-6.27l-.03-1.71v-1.99l.85-1.94,1.95-.45,1.13.03,1.23-.15.54-.56-2.16-.95-.49-.32-.46-1.12.11-1.43c0-1.23-.22-2.48-.4-3.51l-.26-2.8c0-1.98.45-3.62,1.08-5.91l.06-.24.05-.37c-.01-.49-.22-1.26-1.8-2.04l-3.43-.8-1.31.23-1.72,1.96-.17.28-2.25,2.49c-1.3.68-2.71.87-4.21,1.05-1.23.17-2.52.33-3.78.82l-1.86.87c-1.61.78-3.12,1.53-4.84,1.53l-.74-.04-1.59-.31-2.08-.35-.95.12-2.88.99-1.62.63c-2.49.85-3.91.86-6.55-.08l-.54-.08c-1.16.03-2.34.8-3.64,1.72l-1.68,1.28-1.54,1.16c-1.55.97-2.72,1.35-4.11,1.36l-2.93-.37-1.35-.24-.81-.13-2.36-.29c-1.13,0-2.12.42-3.58,1.53-1.36,1-3.92,2.79-5.77,3.38-1.4.46-2.8.69-4.16.69-3.4-.01-6.32-1.43-8.48-4.12-.77-.95-1.48-2.08-2.24-3.26-1.59-2.52-3.22-5.14-5.71-6.56l-.37-.37-1.03-.77-.68-.12-2.45.53-.36.1-1.21-.44.05-1.28,1.77-1.57c1.08-.44,4.48-1.85,5.76-3.39l.49-1.48c-.01-1.28-.77-2.58-1.53-3.8l-.85-1.24-1.05-1.63-.11-.84-.82-1.31-.32-.31-.04.06-.69.55-.87-.13-2.15-2.26-.73-1.05-.77-1.07-1.08-.58-.33-.12-1.18-1.03-.33-1.32-1.55-3.11-2.18-1.39-2.08-1.59c-1.93-1.21-3.12-3.03-4.41-4.96l-.95-1.44c-1.16-1.78-2.23-3.46-4.6-3.8-1.26-.18-1.82-.54-2.39-1.1l-.74-.9-.95-1.2-1.35-.76-1.28.31-1.25.23-.67-.18c-1.16-.28-2.31-2.98-2.34-4.21l-.6-1.59-1.41-.9-.24.02-.26.15-.12.29-1.01.93-1.1-.8-1.07-1.31-1.21-1.55c-.3-1.62-.94-2.89-1.61-4.24l-.41-.82c-.52-1.06-.7-2.18-.86-3.39l-.3-1.75c-1.52-6.76-3.85-13.15-7.32-20.14l-.09-.22-.66-1.21-1.26-.73-.64-.31-1.21-1.34h-.76c-.62-.23-1.73-1.25-3.3-3.01l-.59-.62-2.72-2.1c-1.49-.17-2.91-1.84-3.79-4.53-.71-2.12-1.07-4.64-1.14-6.28-.08-1.64-.32-3.22-.54-4.76-.3-1.9-.56-3.7-.56-5.55l.15-2.22.05-.86c0-1.41-.41-3.03-1.18-4.8l-.23-.72.15-.87.76-.46.72-.09-1.78-2.94-.18-.21c-1.03-1.23-2-2.4-2.38-3.69l-.45-2.87-.1-1.1c-.14-1.1-.82-2.05-2.1-2.9l-2.82-2.81c-1.07-1.26-2.17-2.56-3.61-3.35-3.02-1.59-5.09-2.67-5.86-5.98l-.16-.64-.38-.36c-1.18-1.31-1.7-4.24-1.67-6.42l.15-2.36.5-.74.89-.13,1.9.26h.13l-2.38-2.11-2.28-2.13-1.53-2.04c-.99-1.26-1.93-2.45-2.62-3.92-2.26-4.6-4.66-9.16-6.99-13.56l-1.93-3.66-1.4-2.58-1.43-2.63-.64-.91-.38-.49-.54-.8-.2-.51h.01l.3-1.3.26-.85-.09-.3-.47-.72-1.2-2.06c-.86-2.1-1.71-3.72-3.2-5.24l-.55-1.64v-.65s-.09-.94-.09-.94l.19-.96-.33-.96-.13-.26-.66-1.03-1.82-1.77-1.12-1.03c-1.61-1.59-3.02-3.75-4.38-5.83l-1.34-1.98c-.9-1.26-1.34-2.74-1.77-4.16-.51-1.7-1.05-3.44-2.39-5.06l-.6-1.82.76-2.81,1.06-.61.95.77c.87,2.81,2.12,5.38,3.71,7.64l1.27,1.57c1.29,1.5,2.61,3.04,2.53,4.84l-.06.76-.06.54,1.87,2.94.8.62,2.1,1.95.14.18c.99,1.44,2.02,2.9,3.52,3.96l1.64.95,1.52.87.33-.22.92-2.17.1-.19.8-2.12-.03-1.05c.01-1.52.08-2.65.82-4.44.62-1.52.9-3.39,1.18-5.19.39-2.54.76-4.96,2.03-6.55l-8.98-23.69c-1.58,1.31-3.54,2-5.1,2.47l-2.52.33-2.73.36-1.27-.46-.42-.15-1.34.33c-1.23.46-1.51.49-1.64.49l-.44.03c-1.46,0-2.36-.57-3.33-1.23l-.39-.28-2.63-1.36-.36-.15-.22-.16-1.3-1.48-1.39-1.23-.51-.09-1.08.26h0s-.05.03-.05.03l-.63.3-1.37.45-.31.02-2.81-1-2.64-.96h-.18s-.24.36-.24.36l-.92.3-.49-.08-2.26.68-1.8.53-1.18-.26-2.01,2.47-1.26-.06-.49-.4-3.02,2.88c-2.65,2.29-4.92,3.39-6.95,3.39l-1-.08c-1.33-.2-2.51-.74-3.77-1.34-1.39-.64-2.84-1.31-4.65-1.52l-.98-.08-1.97-.22-1.21-.82-.87-.55-.36.04-1.42.12-1.63-.26-1.54-1.18-1.39-1.05c-2.79-.74-6.11-1.55-9.57-1.9l-2.4-.36c-2.05-.36-4.1-.62-6.04-.05l-2.93.59-1.54-.45-.67-1.53-.03-.93-.26-.36-.82-1.44-2-1.52c-.93-.17-2.26-.15-3.47-.08-1.67.08-3.11.05-4.21-.27l-2.49-.91c-1.41-.57-2.72-1.1-4.5-1.26l-2.87-.55c-1.3-.5-1.94-1.2-1.94-2.11l-.03-.54v-1.08s-.28-1.09-.28-1.09l-1.77-.98-2.24-.95c-1.48-.67-2.99-1.34-4.65-1.74-1.81-.44-4.24-.48-6.49-.31l-2.79.97-2.93.92c-2.09.08-4.73,1.23-7.4,3.24-2.67,2-4.52,4.24-5.19,6.24l-.36,2.34c0,1.76.51,3.47.9,4.63l.8,1.8,1.02,3.36-.09.87c-1.01,4.75-6.24,9.25-11.2,9.65l-.54.03c-2.9,0-5.14-2.12-7.3-4.17l-2.06-1.87c-3.7-2.98-9.97-4.96-14.59-5.81-1.3-.22-2.6-.33-3.84-.44-3.35-.28-6.53-.57-9.21-2.9-2-1.75-3.14-3.82-3.64-6.71l-.06-.35c-.33-1.94-.69-3.93-2.49-5.19l-3.34-.68-2.5-.41-2.85-1.59-2.81-1.62c-1.27-.53-2.6-.8-3.88-1.05l-3.24-.85-1.59-.28-2.96.64-2.48.6c-2.58.27-5.12-.23-7.26-1.53l-3.16-1.54c-1.26-.55-2.44-1.07-3.44-1.77l-.28-.19-.37-.27-.16-.1-.17-.03-.95-.08h-.41l-1.08-.98-.28-.59-.26-.33-.72-1.08-.1-.56v-.36s.04-.42.04-.42l-.5-.76-.87-.67.06-1.05.54-1.13-.23-.35-1.34-.24-1.21.23-.38.67.06.41-.21.9-.82.42-.98.17-.69.13-1.04-.23c-1.31-.6-2.25-1.77-2.81-2.65l-1.03-2.88c-.01-1.52,1.03-2.52,2.05-3.32l1.77-1.23,2.03-1.41c3.26-2.59,5.21-6.04,5.24-9.21l-.14-1.45-.14-.69-.75-2.34c-.41-.58-1-.92-2.31-1.63-1.85-.96-3.24-3.4-3.21-5.54l.03-.26c0-1.07.86-2.39,2.65-3.98l.85-.78,2.59-2.81.49-1.68-1.04-1.57-1.12.46-.23.17-.69.64-.62.54-2.99,2.11-.99-.03-.62-.57-.03-.85.08-.41-.65-1.16-.39-1.3.04-.22-.05-.26-1.21-1.49-1.18-.28-.81-.13-.71-.49-.4-.31-.78-.15-2.11.51-.85.3c-2.18.62-4,1.4-5.66,3.17l-1.09.64-.48.08-.42.05h-.05l-.36.09-.41.18-3.21.45-2.97.28-2.07.33-1.09-1.08.07-.33h-.03l-2.11-.64-1.63-.64-.73-.12-.59.3-.12.26-.66.9-2.71.91c-1.24,0-2.67-.46-3.81-1.23-.44-.27-1.67-.96-2.88-.99l-.67.18-.23.64v.33s-.52,1.08-.52,1.08l-2.54.72-2.07.23-.47.05-2.13,1-2.34,1.08-1.95-.77c-1.98-1.53-2.93-2.21-5.14-2.21l-.31-1.08v1.08h-.35s-1.12.03-1.12.03l-2.98-.03c-1.97,0-4.08.1-6.14.93-.47.13-1.34.18-2.72.2l-.32.03-.96.03-.41.02h0s-.08.01-.08.01l-1.41.35-.9-.23-2.16.85-.35.22-2.84,1.09h-.31s-1.05-.05-1.05-.05c-2.03.01-4.06.35-6.02.67l-3.25.49c-3.7.46-12.66,2.16-15.41,7.56l-1.95,1.66-.23.03-1.31-.33-1.64-.42-.85.35-2.36,1.52-.46-.1-.28-.13-.49-.21-1.8.76-.64.37-2.27,2.62-.14.26-1.32,1.36-.73.33-.98.44-.49.26c-2.7,1.37-4.17,2.13-7.48,2.18l-.67-.2-1.1-.41-.67.19c-1.27.62-2.66.35-3.73-.6l-.08-.08-.33-.05-.72-.78-.18-.64-.23-.89-.23-.06c-1.23,1.7-2.77,1.89-4.4,1.93h0l-2.14-.12-3.22-.08-1.21.15c-1.45.18-2.7.35-3.9.35-2.36-.01-4.1-.57-6.01-1.91-1.82-1.31-2.88-2.63-3.73-4.7l-.22-.58-.35-.94-.87-.77-.53.17c-1.53.82-3.01,1.14-3.94,1.04h-.04l-.69.54-1.27,3.03-.2.62-.1.27c-2.68,7.35-6.37,17.4-13.44,21.36-2.37,1.36-4.98,2.44-7.53,3.47-1.35.55-2.71,1.1-4.06,1.72-2.52,1.16-4.37,3.08-6.17,4.93l-2.35,2.34c-1.3,1.2-2.71,2.49-3.25,4.25l-.46,2.49c-.2,1.5-.41,2.92-1.55,4.25-3.07,3.7-4.82,6.04-5.02,10.75l-.03.76c-.05,1.59-.1,2.98-.77,4.37l-.28.95.33.62.57.37.64.42,1.28,2.74c.05,2.63-2.32,6.49-3.49,7.94l-1.4,1.84c-1.93,2.56-3.92,5.19-6.32,7.22l-3.33,2.74c-1.95,1.58-3.98,3.2-5.94,5.07-3.17,3.04-7.49,4.3-11.29,5.14l-2.4.41c-1.39.22-2.83.44-4.19.92l-.4.36-.19.19-1.36,1.81-.41.59-.59.4-.36.45v.87l-.61,1.4c-.55,1.25-1.19,2.71-1.67,3.99-1.94,5.06-4.2,7-8.88,9.7-3.54,2.04-4.93,5.75-6.27,9.34l-.67,1.76c-.69,1.84-1.05,3.53-1.4,5.15-.65,3.02-1.26,5.86-3.94,8.57l-3.13,2.87c-2.24,1.94-4.55,3.94-5.98,6.38l.64.32.49,1.41-1.3,2.39-1.89,2.72-.62.87-.37,1.39-.04.33-.16.86-.15.32-.33.32-1.27,2.02-.28,1.32-.3,1.27c-.46,1.52-1.29,2.18-2.3,2.92l-.42.3-2.22,2.08c-1.02,1.66-1.66,3.54-2.1,6.14l-.8,3.07c-.55,1.87-1.18,4-1.21,5.92l.21,1.57.36-.03.46-1.61.1-.4.94-.77,1.07.57.87,2.18c.46,1.39.87,2.65,1.95,3.52l.69-.39,1.13.59.13.28c.92,1.9,1.87,3.85,1.82,5.52l-.8,2.29-.26.35-.82.77-1.16,2.28.08.54.08.05.22,1.26-.53,1.13-.77.71,1.62,2.5,1,1.09c.8,1.02.95,2.43,1.09,3.94l.27,2.26c.39,2.88.73,5.57.73,8.41l-.14,3.15c-.31,3.44-1.61,6.73-2.85,9.89-1.44,3.67-2.93,7.46-3.01,11.66l-.05.33-.46,1.37-.82,2.61c-.39,1.25-.51,1.65-.62,1.88-1.08,2.35-2.93,5.76-5.52,8.34l-1.94,1.12-.65.31-1.21.8-.46.82,1.34-.49.49.08c1.6.67,3.16,2.44,4.24,4.86.85,1.82,1.42,4.02,1.54,5.8l.21.14.33.91v.02l.7.22.42,1,.78.22.64.9-.49,1-.28.46-.33.86-.85.33-.54.21-.31.22v1.12l-.85.53.64,2.34.03.87-.21.54-.54,2.41.14.62.24,1.21-.13.59.1.62.05.19-.27,1.05-.09.24.3.82.5.89h.03l.53.13,1.07.76,1.54.75.97.44.26.95-.13.69-.05.64.36.87,1.23.58.13.26.4.36.54.35.99.23.39.51,1-.15,2.44-.77.44-.39,1.34-.08.41,1.26-.08.41.75,2.08.13,1.18-.26,1.05.05.26.14,1.05-.32.57.54.44,1.07-.26.35.15.8.72c.44.51.76,1.26,1.16,2.83l.23.87.02.22.88.94,1.54.26.77.54.08-.12,1.04-.45.85.52.14.95-.91,2.08.66.26.47.76.63,1.2,1.56.99.81.45,1.28,1.16,1.13.15.94,1.08.81,1.17,1.16.65.69.58.05.85h.22s1.22,1.04,1.22,1.04l.04.67.17,1.03.16.31.88.68.3.41.64,1.41.7.26.46.76.09,1.16.13.96v.36s-.04.27-.04.27l.03.26.04.36.4.22.74.48.62.92-.54.99-.22.14-.59,1.1.37,1.32-.03,1.03-.28.5-.31.99.82,1.41,1.6.55,1.01.94.37,2.27.46,1.81.26.58.22.14.48.09.81.56.37,1.18-.95.77-.35.03-.45.66-.05.04-.08.05.5.18,3.12.86.36.04.83.59.11.46c2.26,1.52,8.27,4.75,10.2,5.6l.46.39,1.31,1.7.31.48c.37.56.95,1.27,2.15,1.84l1.55,1.13.49.39,1.39.9.69.89.91,1.19,3.48,1.99c2.11,1.01,2.6,1.32,2.8,1.56,1.67,1.62,3.2,3.44,4.68,5.21,1.39,1.67,2.8,3.38,4.37,4.93,1.66,1.62,3.65,2.72,5.59,3.78,1.56.85,3.17,1.72,4.54,2.85l3.43,1.62,2.48,1.03c1.03.58,2.21,1.25,3.63,1.26l.63-.05.62.09.36.08,1.31-.75c1.1-1.14,5.11-3.25,6.71-3.33,2.17-.26,4.06-1.36,5.9-2.44l3.01-1.59c2.48-1.09,5.31-1.28,8.05-1.48l2.39-.18.26-.19h1.01l1.79.04c3.26-.58,6.06-1.04,8.94-1.2l.77-.05.66.18,1,.35.25-.06,1.12.05,2.35.72,1.85-.91.23-.32.98-.46.89.56.22.41.99,1,.5.4h0l1.13.31,1.34.81,1.03.19,1.34.28.78.22c1.36.39,2.45.68,3.48,1.77.57.59,1.67,1.14,2.93.49l2-1.61,1.03-.94,3.01-1.41,1.34-.49,2.95-.86c1.36-.29,2.76-.63,4.12-1.41l2.68-1.71c2.75-1.8,5.34-3.49,8.9-4.11l2.01-.63.44-.25,1.45.32.62.4h.23c1.67,0,2.34-1.5,2.56-2.16l1.26-1.53.58-.55.41-.33,2.67-1.14.24-.06,1.98-.27c1.99-.27,4.1-.63,6.86-1.17,1.18-.26,3.1-.5,4.55-.62l.45.08.39-.1.23-.03h.49l.39-.17,2.52-.14,1.75.02,2.49-.13.85-.13.56-.06,2.35-.12,1.01-.1c1.67-.13,3.93.1,5.78.57,3.69.9,7.08,4.75,8.5,8.1l.52,1.13.08.14.59.64.68.8-.3,1-.1.26.2.18,1.07.36.78.64-.05,1-.13.54.08.71.9.26.36.98-.13.63-.08.72,1.09,3.19.26.48c.73,1.36,1.71,2.88,3.3,3.66l1.19.78.28.22.4.15.72.41.32.2.55-.44,1.44-.39.31.08.46.03,1.08.06.46-.04.87.15.18-.2.99-.44.89.48.31-.27.1-.19.77-.48.85.26.1.08.1-.44.49-.75.85-.13.8.33.37.03.94.61.99-.42h.05s.5-.32.5-.32l.33-.09.73.07,1.12-.67.77-.15c1.28.24,2.88-.04,3.84-.19l.43-.06,2.36-.6.57-.85.74-1.03,1.22.37.47.44.46,1.07-.04.35.23.67,1.27.26.99-1.1.25-.07.9-.09.67.62c.39.92.62,2.18.85,3.4l.36,1.85.99,1.28,1.56.69,1.1.57.88.58.05-.19,1.05-.81h.04l1.1.03.98.69-.23,1.16-.81.8-.4.82.53.82.51.24.76,1.04.6,1.46.4.57.6.87.76,3.13c0,1.34-.33,2.75-.64,4.12l-.18.78-.36,2.75.16,1.41v.55s-.35,3.19-.35,3.19c-.04,1.34-.05,2.61-.74,3.54l-.69,1.22-.53,1.49-.14.49-1.04,1.36-.74.92-1.31,2.62.11.46c.09.21.4.82,1.73.82l.91.46.14,1-.13,1,.22,1.95.11.79-.38.99-1.05.18-1.12-.09-.75.27-.14.2.36.71.34.4.69.82-.2,1.39-.55.48c-.62.55-.89,1.39-.9,2.79l.15,2.21.13,1.8-.03.57c-.15,1.39-.9,2.52-1.87,3.85l-.32.46-.87.54-.9-.27v.09s-.86.95-.86.95h-1.03s-.55-.64-.55-.64l-.04.42.31,1.27,1.21.23.1,1.41-.15.23.23.49.22.44,1.48,2.85.18.3-.08,1.32.44.67,1.53,2.95.09.65.03.48v.1l.03.18.05.18-.06.67.44.56,1.44,2.49.78,1.51,2.08,2.75.49.72.35.36,2.35,2.22c2.62,2.45,5.34,4.97,7.24,7.9l1.23,1.94c1.39,2.25,3.11,5.03,5.06,6.6l.87.8c2.7,2.45,6.06,5.51,6.88,8.72l.16.67.54,1.95.59,1.22.69.45.94,1.16.81,2.38.51,1.25.14.9-.21,1.13-.3,1.56.33,1.04.51,1.05,1.57,2.04.54.86-.41.92-.5,1.18c.04,1.83,1.34,4.08,2.04,5.29l.26.46,1.51,2c.87,1.04,1.7,2.03,2.02,3.25l.32,1.71.55,2.47,1.12,2.96c.69,1.95,1.42,3.97,2.48,5.91,1.2,2.18,1.77,4.37,1.77,6.68l-.09,1.54-.64,1.03-.54.31-.85.54-.57.62-.73.4-1.02,1.68.33,1.53.08.3v.2s.33.37.33.37l.2.43.49.95.49,2.7.1,1.34.82,1.78.66,1.25.58,1.98c.36,1.36.72,2.67,1.72,4.21,1.47,2.21,2.44,3.98,3.05,6.51.4,1.68.63,3.64.63,5.65,0,4.64-1.1,9.32-2.97,12.55l-.72,1.41-.73,1.39c-.62.85-1.16,1.28-2.45,1.44-1.97.13-2.56,1.62-2.68,2.08l-.41,1.5-.69,2.14c-.71,1.36-2.77,3.8-3.97,4.84l-.73,2.22-.05.49c-.16,1.77-.36,2.7-.77,3.29-.98,1.59-1.07,3.42-1.16,5.19l-.28,2.85-.8,2.49c-.59,1.59-1.34,3.58-1.36,4.96l.1.67.05.63-.54,1.12-.11.21-.45,1.07-.06.51-.55,2.63-1.08,1.47-1.24,1.68-.08.42.26,1.12.21.87.14,2.66c0,2-.22,4.06-.41,6.04-.19,2-.41,4.08-.42,6.14l.03.77c-.08,1.21-.13,2.29-.13,3.37,0,6.68,1.72,11.34,5.45,14.67,3.11,2.74,4.65,6.96,6.17,11.03.8,2.2,1.63,4.46,2.69,6.44,1.27,2.35,2.22,4.89,3.12,7.35,1.36,3.71,2.79,7.55,5.45,10.94l1.1,2.31.76,1.87,1.87,2.74.94,1.26c1.44,2.03,3.18,5.12,3.34,8.32l.05,1.24c-.18,1.36-.57,3.08-.8,4.06l-.13.65-.07.96c0,1.16.17,2.83.32,4.31l.09.93.08,1.64-.06,1.87-.05,1.8c0,1.59.2,2.84.68,4.06l1,2.43c.87,2.07,1.78,4.23,2.2,6.44l.09.94-.14,1.53-.13,1.62.16,1.22.32,2.54.09,1.37.39,2.13.42,3.01v.24s-.04.56-.04.56l-.02.58.46,1.31c1.05,1.36,1.14,2.03,1.17,2.99v1.15s.14,1.58.14,1.58l.77,1.72.77,1.92.13.88.8,3.19.2.44c1.16,2.29,2.34,4.67,3.8,6.86,1,1.51,2.3,2.81,3.54,4.06l2.72,2.94,1.23.78.87.86c.36,1.77,1.34,3.34,2.26,4.87l1.77,3.34c.69,1.8,1.18,3.72,1.67,5.59.32,1.21.64,2.43,1.03,3.66,2.11,6.86,5.41,12.79,8.66,18.16,2.45,4.08,3.54,7.76,3.54,11.92v.54c-.03,1.28-.26,2.57-.62,3.47-.23.53-.8,1.87-2.24,1.87l-1.64-.49-.08.21-.72,2.67.13.47.31.14.38.03.98.64.14.27v.91s.12.31.12.31l1.89,2.9.6.9c1.03,1.67,1.51,2.98,1.49,4.11l-.05.64-.44,1.49-.74,2.98,1.21,1.94-.05-.5-.08-1.08.28-1.18.96-.64.81-.1c1.71.16,2.13.98,2.25,2.16l-.24,1.46.77.08,2.36.33,1.77.59.59.51.11.15h0l-.18,1.39,2.26,1.52.4.33,1.46.28.45-.03ZM1270.68,779.72l1.25,2.75,1.36,2.05.12.18.06-.28.03-.37c.04-.99-.96-2.14-2.01-3.38l-.8-.95Z"/>
  <polygon class="st4" points="734.71 1004.75 733.62 1003.66 734.69 1002.57 734.71 1002.57 735.81 1003.66 734.71 1004.75"/>
  <polygon class="st6" points="735.28 1010.75 733.61 1012.33 734.64 1014.1 735.2 1013.36 735.79 1014.1 735.79 1014.1 736.86 1013.47 737.76 1013.1 737.33 1012.2 735.28 1010.75"/>
  <path class="st4" d="M734.64,1015.18l-.67-.22c-1.18-.91-1.44-1.93-1.46-2.61.01-1.67,1.45-2.7,2.77-2.7s2.47.82,3.06,2.1l.41.87.02.86-.59.62-.9.37-.82.47-1.24.08-.45.15h-.14ZM735.2,1012.28l.83.39.24-.13-.97-.69-.62.5v.06l.51-.13Z"/>
  <path class="st7" d="M740.57,1008.84c-.97.33-1.82,1.26-1.81,2.44l.04.41.93-.16.59.73,1.49-2.32.45-1.76-1.68.66Z"/>
  <path class="st4" d="M740.32,1013.36l-.85-.41-.2-.23-.3.04-.81-.19-.44-.71-.05-.58c0-1.51,1-2.93,2.52-3.47l1.67-.64,1.13.21.32,1.08-.45,1.75-1.88,2.92-.67.24Z"/>
  <polygon class="st4" points="1000.01 1101.16 998.9 1100.08 999.98 1098.99 1000.01 1098.99 1001.09 1100.08 1000.01 1101.16"/>
  <path class="st6" d="M645.1,943.77h-.17l-.41-.19h-.01s-.01-.01-.01-.01l-.27-.4-.99-2.09-.08-.8.57-.57,1.31-.23c1.49.02,2.8.67,3.78,1.1l.51.57-.08.76-1.62.91-1.52-.21h0l-.08.31v.04l-.28.55h0l-.33.2h0s-.23.05-.23.05h-.09Z"/>
  <path class="st4" d="M645.22,944.87h-.22s-.18-.03-.18-.03l-.14-.03h0s-.02-.01-.02-.01h0s-.77-.36-.77-.36l-.08-.05-.6-.87-.89-1.89-.18-1.72,1.21-1.23,1.7-.28c1.58.01,2.94.62,3.94,1.08l.28.11,1.09,1.22-.15,1.62-2.49,1.49-.85-.08-.33.44-.05.05-.63.39-.06.03-.51.11h-.05Z"/>
  <polygon class="st6" points="1001.99 1136.88 1001.97 1136.88 1001.93 1136.87 1001.93 1136.87 1001.91 1136.84 1001.9 1136.84 1001.86 1136.83 1001.86 1136.82 1001.83 1136.82 1001.83 1136.8 1001.82 1136.79 1001.78 1136.78 1001.78 1136.77 1001.75 1136.75 1001.74 1136.74 1001.73 1136.73 1001.72 1136.71 1000.82 1134.92 1001.92 1132.99 1002.69 1132.85 1003.3 1133.35 1003.65 1134.81 1003.14 1136.5 1003.04 1136.64 1003.04 1136.64 1003.01 1136.66 1003.01 1136.66 1002.99 1136.69 1002.99 1136.69 1002.96 1136.71 1002.59 1136.92 1002.56 1136.92 1002.55 1136.93 1002.54 1136.93 1002.52 1136.93 1002.52 1136.95 1002.33 1136.96 1001.99 1136.88"/>
  <path class="st4" d="M1002.33,1138.05l-.78-.17-.08-.03-.1-.06h-.02l-.03-.03-.16-.09-.06-.06-.06-.05-.04-.03-1.27-2.63,1.59-2.81,1.64-.3,1.31,1.09.46,1.93-.67,2.26-.13.18-.13.16-.17.15-.74.41h-.04l-.05.03h-.05l-.23.03-.19.03ZM1002.4,1133.99l-.49.91.4.89.26-.98-.17-.82Z"/>
  <polygon class="st6" points="1550.13 1217.81 1548.99 1216.4 1548.49 1215.46 1549.2 1214.67 1549.8 1214.59 1551.57 1215.58 1552 1217.26 1551.98 1217.67 1551.97 1217.71 1551.75 1218.22 1551.75 1218.22 1551.75 1218.22 1551.24 1218.53 1551.03 1218.56 1550.13 1217.81"/>
  <path class="st4" d="M1551.03,1219.64h0l-1.97-1.59-.57-.68-1.08-2.03,1.51-1.73.87-.1h0l2.72,1.56.57,2.2-.03.53-.46,1.14h0l-.03.03-1.1.65-.44.04ZM1549.89,1215.68l.96,1.04-.22-.58-.74-.46Z"/>
  <circle class="st2" cx="1100" cy="1100" r="864"/>
  <circle class="st1" cx="1100" cy="1100.54" r="635.99"/>
  <g>
    <path class="st0" d="M559.19,1685.71l-11.98-11.18,45.48-101.02,19.82,18.51-38.57,81-9.83,1.83,86.01-47.72,6.87,6.42-97.81,52.17ZM618.14,1608.49l-14.74-10.49-7.76-7.24-13.25-15.64,5.6-6,35.75,33.38-5.6,6ZM616.16,1649.7l-31.31-29.24,3.72-9.22,35.86,33.48-8.27,4.97ZM657.9,1646.08l-13.56-9.39-2.07-1.93-9.37-12.02,5.84-6.25,25,23.34-5.84,6.25Z"/>
    <path class="st0" d="M461.21,1578.09l-.19-14.6,32.09,39.91-7.01,5.64-35.43-44.06,20.69-18.06,8.29,10.32-18.44,20.85ZM532.94,1588.47c-12.79,10.28-25.7,20.66-38.19,31.32l-17.29-21.51c12.84-9.71,25.75-20.09,38.78-30.57l4.09-3.29c13.29-10.69,26.2-21.07,38.69-31.72l17.29,21.51c-12.84,9.71-25.75,20.09-38.78,30.57l-4.59,3.7ZM504.89,1554.71l-13.4,7.72-5.77-7.17,27.98-22.5,5.77,7.17-11.04,11.93-3.54,2.85ZM508.77,1623.58l-6.67,5.36-16-19.9,8.53-6.86,1.57,1.95,12.57,19.45ZM507.04,1546.76l22.19,27.6-7.32,5.89-22.19-27.6,7.32-5.89ZM556.14,1546.58l-12.57-19.45,6.67-5.36,33.44,41.58-6.67,5.36-16.29-16.45-4.57-5.69Z"/>
    <path class="st0" d="M464.29,1498.89l-9.51-16.09c-8.02-13.57-18.43-13.01-27.26-7.79-11.02,6.52-12.83,15.61-6.24,26.76l9.99,16.9-7.89,4.67-13.28-22.46c-12.7-21.49-11.22-38.42,3.01-46.84,10.47-6.19,25.82-4.78,41.44,18.65l-1.46.71c-12.08-21.95-8.19-31.57,5.11-42.68l19.03-16.16-.42,15.4-9.86-21.8,7.37-4.35c5.36,5.6,7.1,7.53,10.81,13.8,6.87,11.62,7.53,20.46-2.33,28.11l-14.42,11.96c-8.43,6.81-10.63,12.67-5.79,20.85l9.36,15.83-7.66,4.53ZM472.68,1509.68c-14.12,8.35-28.39,16.78-42.27,25.54l-13.81-23.36c14.21-7.85,28.24-16.14,43.14-24.95l4.21-2.49c14.61-8.63,28.87-17.06,42.75-25.82l13.81,23.36c-14.09,7.78-28.35,16.21-42.75,24.72l-5.08,3ZM443.75,1540.97l-7.37,4.35-12.99-21.98,9.42-5.57,1.27,2.15,9.66,21.04ZM502.79,1473.5l-9.66-21.04,7.36-4.35,25.99,43.96-7.37,4.35-13.78-18.61-2.55-4.31Z"/>
    <path class="st0" d="M384.7,1435.41l-7.85,3.41-20.38-46.95,7.85-3.41,11.54,20.59,1.86,4.28,6.98,22.08ZM417.29,1407.95c-15.05,6.53-30.25,13.13-45.11,20.1l-10.99-25.32c14.95-5.97,30.15-12.57,45.49-19.22l5.3-2.3c15.16-6.58,30.35-13.18,45.22-20.14l10.99,25.31c-14.95,5.97-30.15,12.57-45.49,19.23l-5.41,2.35ZM451.79,1376.1l-7.16-22.5,7.85-3.41,20.38,46.95-7.85,3.41-11.36-20.18-1.86-4.28Z"/>
    <path class="st0" d="M409.87,1267.53l7.83-2.38,5.33,9.5-25.43,2.13-3.51-11.56,23.61-6.5c6.99,6.77,13.47,16.48,17.42,29.52,8.87,29.25-1.31,57.99-36.92,68.79-36.1,10.95-60.58-9.24-69.23-37.75-3.48-11.49-3.71-21.52-1.48-32.03l23.46-7.78,3.51,11.56-22.52,12.53-.73-10.9,8.42-2.55c-4.35,9.21-5.2,16.13-3.12,22.98,4.92,16.22,22.5,26.46,53.65,17.01,31.04-9.42,39.93-27.04,35.06-43.11-2.29-7.56-7.68-14.02-15.36-19.47Z"/>
    <path class="st0" d="M310.57,1222.69l-2.38-16.22,98.58-50.54,3.94,26.83-80.69,39.21-8.82-4.71,96.99,16.4,1.37,9.3-108.98-20.29ZM377.56,1230.12l-6.22-42.38,8.66-4.88,7.12,48.54-9.57-1.28ZM404.82,1199.16l-4.97-17.39-1.54-10.5-.59-20.49,8.12-1.19,7.1,48.39-8.12,1.19ZM412.43,1253.34l-4.73-15.8-.41-2.8.18-15.24,8.46-1.24,4.97,33.84-8.46,1.24Z"/>
    <path class="st0" d="M301.4,1079.13l-.02-41.86h8.56s2.4,16.09,2.4,16.09v4.43s-2.38,21.33-2.38,21.33h-8.56ZM301.39,1060.98v-10.22s104.96-.04,104.96-.04l-10.26,10.23-94.71.04ZM307.05,1135.43l4.51-9.15-1.46,17.21h-8.67s-.02-35.82-.02-35.82l78.4-56.95h26.54s0,13.42,0,13.42l-99.31,71.29ZM301.42,1130.23l8.67-10.23,95.99-.04v10.22s-104.65.04-104.65.04ZM397.53,1143.67l-2.4-16.89v-4.55s2.38-20.42,2.38-20.42h8.56s.02,41.85.02,41.85h-8.56Z"/>
    <path class="st0" d="M416.31,907.36l7.99,1.79-.04,10.89-23.18-10.68,2.65-11.79,23.74,5.98c2.75,9.34,3.6,20.98.61,34.28-6.7,29.82-29.72,49.82-66.03,41.67-36.8-8.26-48.16-37.89-41.63-66.97,2.63-11.71,7.38-20.55,14.49-28.6l24.25,4.79-2.65,11.79-25.77-.19,4.73-9.84,8.58,1.93c-8.32,5.88-12.47,11.47-14.04,18.45-3.72,16.54,6.54,34.11,38.3,41.24,31.65,7.11,48.08-3.85,51.75-20.23,1.73-7.71.23-15.99-3.77-24.51Z"/>
    <path class="st0" d="M345.41,859.08l-7.94-3.18,18.62-46.45,7.94,3.18-6.4,22.37-1.74,4.33-10.49,19.75ZM387.77,863.15c-15.23-6.11-30.61-12.27-46.01-17.94l10.27-25.62c14.76,6.43,30.13,12.59,45.66,18.82l4.54,1.82c16.16,6.48,31.54,12.64,46.94,18.31l-10.27,25.62c-14.76-6.43-30.13-12.6-45.66-18.82l-5.47-2.19ZM368.13,802.42l-7.94-3.18,18.62-46.45,7.94,3.18-6.27,22.06-1.65,4.11-10.7,20.28ZM410.27,807.03c-15.23-6.11-30.6-12.27-46.01-17.93l10.27-25.62c14.76,6.43,30.13,12.59,45.66,18.82l5.47,2.19c15.23,6.1,30.61,12.27,46.01,17.93l-10.27,25.62c-14.76-6.43-30.13-12.59-46.59-19.19l-4.54-1.82ZM398.42,853.06l-8.62-3.45,22.5-56.12,8.62,3.45-22.5,56.12ZM434.46,865.8l10.83-20.6,7.94,3.18-18.62,46.44-7.94-3.18,6.06-21.52,1.73-4.33ZM457.3,808.83l10.7-20.27,7.94,3.18-18.62,46.44-7.94-3.18,6.27-22.05,1.65-4.12Z"/>
    <path class="st0" d="M398.81,735.53l-7.45-4.22,25.21-44.54,7.44,4.21-9.49,21.62-2.3,4.06-13.42,18.87ZM440.35,745.01c-14.28-8.08-28.7-16.24-43.21-23.91l13.59-24.02c13.77,8.34,28.18,16.5,42.74,24.74l5.03,2.85c14.38,8.14,28.8,16.3,43.31,23.97l-13.59,24.02c-13.77-8.34-28.18-16.5-42.74-24.74l-5.13-2.9ZM486.56,753.37l13.65-19.26,7.45,4.22-25.21,44.54-7.45-4.22,9.27-21.22,2.3-4.06Z"/>
    <path class="st0" d="M435.35,671.68l-6.92-5.04,15.03-20.64,8.85,6.44-1.47,2.02-15.49,17.21ZM475.54,685.84c-13.26-9.66-26.66-19.41-40.2-28.68l16.24-22.31c12.73,9.85,26.12,19.6,39.64,29.45l4.24,3.09c13.79,10.04,27.18,19.79,40.73,29.06l-16.24,22.31c-12.73-9.85-26.12-19.61-39.64-29.45l-4.77-3.47ZM466.23,614.73l14.04-3.99-29.53,40.56-7.28-5.3,32.67-44.87,22.83,15.25-7.79,10.7-24.94-12.36ZM508.76,650.33l-20.57,28.25-7.6-5.53,20.57-28.25,7.6,5.53ZM500.53,650.33l-10.95-10.92,5.42-7.44,27.73,20.19-5.42,7.44-14.39-7.54-2.39-1.74ZM519.22,701.16l8.85,6.44-15.03,20.64-6.92-5.04,11.62-20.03,1.47-2.02ZM541.08,643.12l21.53,17.05-34.53,47.43-7.18-5.23,31.4-43.13.42,14.52-19.42-19.94,7.79-10.7Z"/>
    <path class="st0" d="M500.14,585.56l-6.18-5.92,17.67-18.44,7.9,7.57-1.73,1.81-17.66,14.98ZM538.07,604.98c-11.85-11.35-23.81-22.81-35.99-33.82l19.09-19.93c11.29,11.47,23.25,22.93,35.33,34.5l3.79,3.63c12.32,11.8,24.28,23.26,36.46,34.26l-19.09,19.93c-11.29-11.47-23.25-22.93-35.33-34.5l-4.26-4.08ZM539.1,532.53l14.45-2.07-35.43,36.97-6.5-6.23,39.11-40.82,20.58,18.18-9.16,9.56-23.06-15.59ZM576.08,573.92l-24.5,25.57-6.78-6.5,24.5-25.57,6.79,6.5ZM567.92,572.81l-9.38-12.29,6.37-6.64,25.92,24.83-6.37,6.64-13.25-9.4-3.29-3.15ZM582.61,622.57l17.66-14.98,6.18,5.92-36.91,38.53-6.18-5.92,14.21-18.28,5.05-5.27Z"/>
    <path class="st0" d="M661.12,536.3c-5.27-6.54-10.88-6.92-21-4.24l-7.16,1.82c-19.93,5.08-34.25,4.46-45.31-9.26-12-14.89-7.31-33.58,11.41-48.67,8.81-7.1,19.2-11.62,28.42-12.51l13,18.19-11.33,9.14-18.11-16.3,12.82-4.47,5,6.2c-10.45.52-17.17,1.72-23.54,6.86-7.05,5.68-9.12,14.74-3.65,21.54,5.29,6.56,11.96,6.84,21.93,4.23l7.95-2.01c21.52-5.58,33.51-3.97,43.62,8.58,11.8,14.63,8.99,33.99-12.12,51.01-9.26,7.47-21.38,13.8-32.04,15.13l-14.12-19.03,11.51-9.28,19.4,17.49-11.98,4.67-4.8-5.95c11.25-2.08,18.13-3.97,26.08-10.38,8.79-7.09,9.43-16.02,4.02-22.74Z"/>
    <path class="st0" d="M796.8,418.16c17.08,32.51,4.35,60.18-18.84,72.37-23.19,12.19-53.05,7.36-70.32-25.51-17.08-32.51-4.17-60.27,18.88-72.39,23.05-12.11,53.01-7.33,70.28,25.53ZM773.67,482.36c14.13-7.43,10.54-27.73-1.75-51.12-12.24-23.29-27.03-37.96-41.16-30.54-14.13,7.42-10.47,27.95,1.77,51.24,12.29,23.39,27.02,37.84,41.15,30.41Z"/>
    <path class="st0" d="M797.25,371.06l-2.85-8.07,24.07-8.51,3.65,10.32-2.36.83-22.51,5.43ZM822.38,405.48c-5.47-15.47-10.99-31.09-16.91-46.4l26.02-9.2c4.92,15.33,10.44,30.95,16.01,46.72l1.75,4.95c5.69,16.08,11.21,31.7,17.13,47.01l-26.02,9.2c-4.92-15.33-10.44-30.95-16.01-46.72l-1.96-5.56ZM855.92,341.24l13.83,4.65-48.28,17.07-3-8.48,53.3-18.85,10.19,25.5-12.48,4.41-13.57-24.3ZM854.23,441.24l22.51-5.43,2.85,8.07-50.3,17.79-2.85-8.07,20.92-9.93,6.88-2.43ZM870.31,394.85l-33.39,11.81-3.13-8.86,33.38-11.81,3.13,8.86ZM863.52,390.19l-2.85-15.2,8.67-3.07,11.97,33.85-8.67,3.07-7.6-14.36-1.52-4.29Z"/>
    <path class="st0" d="M938.49,327.13l-1.19-8.47,25.29-3.55,1.52,10.84-2.48.35-23.14.84ZM956.26,365.86c-2.28-16.25-4.59-32.65-7.34-48.83l27.33-3.84c1.77,16,4.07,32.4,6.4,48.97l.73,5.2c2.37,16.89,4.68,33.29,7.43,49.47l-27.33,3.84c-1.77-16-4.07-32.4-6.48-49.49l-.75-5.31ZM975.62,407.9l1.52,10.84-25.28,3.56-1.19-8.47,22.47-5.57,2.48-.35ZM975.87,409.67l18.68-2.63c17.98-2.53,26.94-19.56,23.09-46.9-3.9-27.77-17.13-41.11-34.83-38.62l-18.96,2.67-1.28-9.08,21.41-3.01c33.48-4.71,56.41,12.1,60.9,43.98,4.63,32.94-14.8,55.23-49.13,60.05l-18.6,2.61-1.28-9.08Z"/>
    <path class="st0" d="M1059.54,312.35v-8.56s25.53,0,25.53,0v10.95s-2.5,0-2.5,0l-23.03-2.38ZM1085.11,397.5v10.94s-25.53,0-25.53,0v-8.56s23.03-2.4,23.03-2.4h2.5ZM1071.77,353.17c0-16.41-.01-32.97-.49-49.38h27.6c-.47,16.08-.46,32.65-.46,49.37v5.25c0,17.05.01,33.62.49,50.03h-27.6c.47-16.08.47-32.65.46-49.37v-5.9ZM1123.76,303.77l11.49,9h-50.18s0-8.98,0-8.98l55.5-.02,1.12,27.43h-13.24s-4.7-27.43-4.7-27.43ZM1120.04,359.11h-34.94s0-9.39,0-9.39h34.94s0,9.39,0,9.39ZM1144.88,380.99l-1.1,27.44-58.67.02v-8.88s53.35-.02,53.35-.02l-11.49,8.89,4.68-27.44h13.24ZM1115.19,352.46l2.38-15.28h9.2s.01,34.3.01,34.3h-9.2s-2.38-16.07-2.38-16.07v-2.96Z"/>
    <path class="st0" d="M1185.9,402.6l22.5,5.48-1.16,8.48-52.87-7.2,1.16-8.48,23.14.74,7.23.98ZM1173.94,356.23c2.21-16.26,4.45-32.67,6.19-48.99l27.34,3.72c-2.64,15.88-4.88,32.29-7.14,48.86l-.71,5.2c-2.3,16.9-4.54,33.31-6.28,49.63l-27.34-3.73c2.64-15.88,4.88-32.29,7.14-48.86l.8-5.84ZM1167.35,314.13l1.16-8.48,25.3,3.45-1.48,10.84-2.48-.34-22.5-5.48ZM1221.42,368.71l-35.09-4.78,1.27-9.31,35.09,4.78-1.27,9.31ZM1233.16,314.46l10.17,10.47-50.74-6.91,1.21-8.92,56.01,7.63-2.6,27.33-13.11-1.79-.94-27.82ZM1217.52,361.47l4.42-14.81,9.12,1.24-4.85,35.57-9.12-1.24-.19-16.25.61-4.51Z"/>
    <path class="st0" d="M1272.56,418.52l-2.91,10.55-24.62-6.79,2.27-8.25,22.84,3.82,2.41.66ZM1271.5,372.24c4.36-15.82,8.76-31.79,12.67-47.73l26.6,7.33c-4.73,15.38-9.14,31.35-13.58,47.48l-1.4,5.06c-4.53,16.44-8.93,32.41-12.84,48.35l-26.61-7.33c4.74-15.38,9.14-31.35,13.58-47.48l1.57-5.68ZM1334.58,418.51l-8.36,26.15-56.57-15.59,2.36-8.57,51.43,14.18-13.44,5.51,11.81-25.2,12.76,3.52ZM1270.58,329.64l2.27-8.25,24.62,6.79-2.91,10.55-2.41-.67-21.57-8.42ZM1316.45,390.81l-33.69-9.29,2.5-9.06,33.69,9.29-2.5,9.06ZM1334.76,338.46l8.69,11.73-48.38-13.33,2.39-8.68,53.51,14.75-6.22,26.74-12.76-3.52,2.77-27.7ZM1313.54,383.11l6.35-14.09,8.87,2.45-9.12,33.07-8.87-2.44,1.98-16.13.79-2.85Z"/>
    <path class="st0" d="M1339.06,439.33l16.39,4.72,4.15,1.86,17.67,10.52-3.5,7.81-38.21-17.1,3.5-7.81ZM1390.64,357.12l5.79,12.09-39.22,87.61-9.33-4.18,42.76-95.52ZM1383.59,360.13l6.51,7.86-15.11-8.37,3.54-7.91,32.7,14.63,19.91,94.84-10.84,24.22-12.26-5.49-24.44-119.77ZM1453.85,385.42l9.33,4.18-42.89,95.8-5.14-13.54,38.69-86.44ZM1437.28,378l38.21,17.1-3.5,7.81-15.67-4.4-4.04-1.81-18.49-10.9,3.5-7.81Z"/>
    <path class="st0" d="M1515.87,526.16l-4.42,6.89-10.22-3.77,17.98-18.11,10.17,6.53-13.76,20.25c-9.71-.62-20.94-3.81-32.41-11.18-25.72-16.51-36.61-45-16.5-76.31,20.38-31.74,52.11-32.25,77.18-16.15,10.1,6.49,16.77,13.98,21.9,23.42l-12.82,21.13-10.17-6.53,9.02-24.14,7.62,7.82-4.75,7.4c-2.67-9.83-6.5-15.65-12.52-19.52-14.27-9.16-34.28-5.55-51.87,21.85-17.53,27.3-12.87,46.48,1.26,55.55,6.65,4.27,14.94,5.69,24.32,4.87Z"/>
    <path class="st0" d="M1547.66,557.03l-7.13,8.3-19.37-16.64,5.58-6.49,19.03,13.2,1.9,1.63ZM1566.45,514.72c10.69-12.44,21.49-25.01,31.82-37.76l20.93,17.98c-10.85,11.89-21.64,24.46-32.55,37.14l-3.42,3.98c-11.12,12.94-21.91,25.5-32.25,38.25l-20.93-17.98c10.85-11.89,21.65-24.46,32.55-37.14l3.84-4.47ZM1603.75,583.48l-18.72,20.08-44.5-38.24,5.79-6.74,40.46,34.77-14.5-.75,21.44-17.75,10.04,8.63ZM1599.17,550.7l-26.5-22.77,6.12-7.13,26.5,22.77-6.12,7.13ZM1583.8,475.8l5.58-6.49,19.37,16.64-7.13,8.3-1.9-1.63-15.91-16.82ZM1599.83,542.49l11.76-10.03,6.98,6-22.36,26.02-6.98-6,8.67-13.74,1.93-2.24ZM1638.08,511.16l2.85,14.31-38.05-32.7,5.87-6.83,42.09,36.17-17.04,21.53-10.04-8.63,14.32-23.86Z"/>
    <path class="st0" d="M1667.2,664.74c6.54-5.27,6.92-10.88,4.24-21.01l-1.82-7.16c-5.08-19.93-4.46-34.25,9.27-45.32,14.89-12,33.59-7.31,48.68,11.42,7.1,8.81,11.62,19.2,12.51,28.43l-18.19,13-9.14-11.33,16.3-18.11,4.47,12.82-6.2,5c-.52-10.45-1.72-17.17-6.85-23.54-5.68-7.05-14.74-9.13-21.54-3.65-6.56,5.29-6.84,11.96-4.23,21.94l2.01,7.95c5.58,21.52,3.97,33.51-8.58,43.63-14.64,11.8-33.99,8.99-51.01-12.13-7.47-9.27-13.8-21.39-15.13-32.05l19.04-14.12,9.28,11.51-17.5,19.4-4.67-11.98,5.95-4.8c2.08,11.25,3.97,18.13,10.38,26.08,7.09,8.8,16.02,9.44,22.74,4.02Z"/>
    <path class="st0" d="M1704.75,738.75l10.41,21.68-7.31,4.45-28.28-46.42,7.31-4.45,14.25,18.8,3.62,5.94ZM1733.96,701.49c14.01-8.54,28.16-17.16,41.92-26.1l14.36,23.57c-13.99,7.97-28.14,16.58-42.42,25.29l-4.94,3.01c-14.11,8.6-28.26,17.22-42.02,26.16l-14.36-23.57c13.99-7.96,28.13-16.59,42.42-25.29l5.04-3.07ZM1753.95,656.67l13.66,5.13-27.46,11.86-6.89-11.3,25.6-14.91,48.47,79.55-25.05,15.81-6.83-11.21,23.13-18.97-1.77,14.4-42.87-70.36Z"/>
    <path class="st0" d="M1723.07,771.98l8.75,13.99,1.14,2.59,3.86,14.74-7.83,3.44-13.75-31.32,7.83-3.44ZM1829.41,774.57l6.59,15.01-81.69,74.83-10.9-24.83,67.44-59.17,9.75,2.2-97.87,9.86-3.78-8.61,110.47-9.28ZM1744.75,822.22l9.39,15.46,4.27,9.72,6,19.61-7.52,3.3-19.66-44.78,7.52-3.3ZM1762.84,785.14l17.22,39.23-7.06,7-19.72-44.93,9.57-1.3Z"/>
    <path class="st0" d="M1777.14,903.57l3.81,22.84-8.25,2.27-14.17-51.44,8.25-2.27,8.42,21.57,1.94,7.03ZM1815.07,874.34c15.82-4.35,31.79-8.75,47.48-13.57l7.33,26.61c-15.64,3.81-31.61,8.21-47.74,12.65l-5.06,1.39c-16.44,4.53-32.42,8.92-48.11,13.74l-7.33-26.6c15.64-3.81,31.61-8.21,47.74-12.65l5.68-1.57ZM1827.4,916.47l15.36-1.76,2.44,8.87-34.61,9.53-2.44-8.87,14.86-6.56,4.39-1.21ZM1822.27,922.91l-9.4-34.14,9.06-2.49,9.4,34.14-9.06,2.5ZM1851.19,851.73l8.25-2.27,6.78,24.62-10.55,2.91-.66-2.41-3.81-22.84ZM1876.76,912.37l-5.63,13.47-13.59-49.37,8.68-2.39,15.01,54.5-26.16,8.35-3.51-12.76,25.21-11.8Z"/>
    <path class="st0" d="M1797.13,994.3l.74,23.14-8.48,1.15-7.19-52.87,8.48-1.15,5.47,22.5.98,7.23ZM1838.62,970.38c16.26-2.21,32.67-4.44,48.87-7.12l3.72,27.35c-16.01,1.7-32.42,3.93-49,6.18l-5.2.71c-16.9,2.3-33.32,4.53-49.51,7.21l-3.72-27.35c16.01-1.7,32.42-3.93,49-6.18l5.84-.79ZM1845.23,1013.77l15.46.3,1.24,9.12-35.57,4.84-1.24-9.12,15.61-4.52,4.51-.61ZM1839.29,1019.47l-4.77-35.09,9.31-1.27,4.77,35.09-9.31,1.26ZM1894.7,1016.28l-7.37,12.6-6.9-50.74,8.92-1.21,7.61,56.02-27.04,4.8-1.78-13.12,26.55-8.34ZM1877.43,952.78l8.48-1.15,3.44,25.3-10.85,1.47-.34-2.48-.74-23.14Z"/>
    <path class="st0" d="M1814.26,1147.08c8.39.39,12.39-3.56,17.09-12.92l3.38-6.57c9.41-18.29,19.36-28.61,36.97-27.8,19.1.88,29.99,16.79,28.89,40.81-.52,11.31-4.02,22.08-9.47,29.58l-22.23-2.32.67-14.54,24.21-2.76-5.15,12.57-7.96-.37c6.54-8.17,10.09-14,10.47-22.17.42-9.05-4.99-16.61-13.71-17.01-8.42-.39-13.04,4.42-17.7,13.62l-3.76,7.28c-10.08,19.82-19.23,27.72-35.34,26.98-18.78-.86-31.41-15.8-30.16-42.89.55-11.89,3.83-25.16,9.9-34.03l23.61,2.04-.68,14.77-25.96,2.93,4.44-12.07,7.64.35c-5.9,9.81-9.04,16.21-9.51,26.42-.52,11.28,5.74,17.68,14.36,18.08Z"/>
    <path class="st0" d="M1791.86,1238.28c-2.65,13.99,5.15,24.13,28.77,28.6l58.52,11.07-1.92,10.16-58.52-11.07c-33.21-6.28-44.32-24.27-39.45-50.04,4.36-23.06,18.96-37.63,49.32-31.89l17.02,3.22c15.44,2.92,31.27,5.92,47.03,8.41l-5.13,27.11c-15.27-3.37-31.09-6.36-46.85-9.35l-12.03-2.27c-23.99-4.54-33.96,1.28-36.75,16.05ZM1868.83,1278.52l4.58-16.31,8.41,1.59-7.03,37.19-8.41-1.59,1.59-16.3.87-4.58ZM1886.31,1194.05l8.41,1.59-9.62,50.85-8.41-1.59,2.04-23.63.84-4.47,6.74-22.75Z"/>
    <path class="st0" d="M1749.77,1366.87l-5.13,19.78-2.64,6.8-10.58,20.6-7.97-3.1,18.35-47.18,7.97,3.1ZM1780.41,1391.51l54.42,21.78-9.59,24.66c-15.04-6.36-30.48-12.36-45.85-18.34l-5.5-2.14c-15.51-6.03-30.95-12.04-46.2-17.46l9.97-25.64c15.04,6.36,30.52,12.26,42.74,17.14ZM1863.7,1339.08l-9.77,25.11-82.62-1.48,1.91-4.92,62.48,53.24-3.79,9.76-84.27-72.05,4.44-11.41,111.61,1.75ZM1780.03,1289.08l-4.48,18.1-1.65,4.24-7.91,13.73-7.97-3.1,14.03-36.07,7.97,3.1ZM1864.04,1338.18l-3.29,8.45-51.85-18.88-46.12-17.94,3.72-9.57,97.54,37.94ZM1830.24,1425.09l-9.05,23.26-7.97-3.1,5.91-21.8.91-2.33,10.2,3.97ZM1869.1,1325.19l-8.21,21.12-10.28-3.75.94-2.42,9.58-18.05,7.97,3.1Z"/>
    <path class="st0" d="M1682.17,1491.99l-9.04,18.33-3.97,6.12-14.54,18.02-7.18-4.66,27.55-42.47,7.18,4.66ZM1707.16,1522.34l48.85,32.38-14.4,22.2c-13.43-9.28-27.33-18.3-41.16-27.28l-4.95-3.21c-13.96-9.05-27.85-18.07-41.68-26.48l14.97-23.08c13.43,9.28,27.39,18.2,38.37,25.46ZM1799.36,1487.92l-14.67,22.6-80.59-18.23,2.87-4.43,50.36,64.82-5.7,8.78-67.87-87.67,6.66-10.27,108.92,24.39ZM1727.6,1421.96l-8.06,16.81-2.47,3.81-10.53,11.84-7.18-4.66,21.06-32.47,7.18,4.66ZM1799.88,1487.11l-4.94,7.61-46.93-29.02-41.51-26.93,5.59-8.62,87.79,56.96ZM1749.13,1565.34l-13.59,20.94-7.18-4.66,10.22-20.14,1.36-2.1,9.18,5.96ZM1807.47,1475.42l-12.33,19.01-9.31-5.77,1.41-2.17,13.05-15.73,7.18,4.66Z"/>
    <path class="st0" d="M1628.57,1564.45l-17.32,16.04-6.42-5.66,33.84-38.39,6.42,5.66-13.44,18.86-3.08,3.5ZM1672.06,1582.15c12.31,10.85,24.73,21.81,37.36,32.3l-18.25,20.7c-11.75-11-24.18-21.95-36.73-33.01l-4.34-3.82c-12.39-10.93-24.82-21.88-37.44-32.37l18.25-20.7c11.75,11,24.18,21.95,36.73,33.01l4.42,3.9ZM1710.76,1599.99l6.42,5.66-33.84,38.4-6.42-5.66,13.74-19.2,3.08-3.5,17.02-15.7Z"/>
    <path class="st0" d="M1568.94,1624.1l-19.42,14.19-5.71-6.37,40.48-36.27,5.71,6.37-15.89,17.44-5.18,4.64ZM1610.91,1646.02c10.95,12.22,22,24.56,33.31,36.46l-20.55,18.42c-10.38-12.3-21.44-24.64-32.6-37.09l-3.86-4.3c-11.03-12.3-22.08-24.64-33.39-36.54l20.55-18.42c10.38,12.3,21.44,24.64,32.6,37.09l3.94,4.39ZM1658.62,1657.49l-2.55,14.37-16.67-24.83,9.86-8.83,19.33,22.45-69.38,62.17-20.11-21.74,9.77-8.76,22.87,19.28-14.48.89,61.36-54.99Z"/>
  </g>
  <g>
    <path id="Shape" class="st5" d="M922.96,589.29l21.8-5.53,9.11,28.07-30.91-22.55ZM973.13,553h-38.38s-11.8-36.14-11.8-36.14l-11.8,36.14h-38.38s31.06,22.4,31.06,22.4l-11.8,36.14,31.06-22.4,19.11-13.74,30.91-22.4h0Z"/>
    <path id="Shape1" data-name="Shape" class="st5" d="M1040.82,589.29l21.8-5.53,9.11,28.07-30.91-22.55ZM1090.99,553h-38.38s-11.8-36.14-11.8-36.14l-11.8,36.14h-38.38s31.06,22.4,31.06,22.4l-11.8,36.14,31.06-22.4,19.11-13.74,30.91-22.4h0Z"/>
    <path id="Shape2" data-name="Shape" class="st5" d="M1158.68,589.29l21.8-5.53,9.11,28.07-30.91-22.55ZM1208.86,553h-38.38s-11.8-36.14-11.8-36.14l-11.8,36.14h-38.38s31.06,22.4,31.06,22.4l-11.8,36.14,31.06-22.4,19.11-13.74,30.91-22.4h0Z"/>
    <path id="Shape3" data-name="Shape" class="st5" d="M1277.04,589.29l21.8-5.53,9.11,28.07-30.91-22.55ZM1327.22,553h-38.38s-11.8-36.14-11.8-36.14l-11.8,36.14h-38.38s31.06,22.4,31.06,22.4l-11.8,36.14,31.06-22.4,19.11-13.74,30.91-22.4h0Z"/>
  </g>
  <g>
    <path d="M920.31,1819.3c-2.63,6.33-1.42,9.23,2.04,10.67,4.01,1.66,10.62-.38,15.42-3.39l3.89,1.62-2.79,6.72-6.65-2.76,4.47-1.56c-8.6,7.06-17.57,9.56-25.93,6.09-8.71-3.62-12.5-10.91-6.76-24.24l11.72-27.18,1.88,4.59-8.24-5.8,1.78-4.29,21.93,5.66,1.15,1.75-6.47,14.16-7.46,17.96ZM928.02,1843.33l4.13-12.31,14.2-33.14,1.85,4.66-7.95-5.68,1.63-3.92,21.59,5.09,1.15,1.75-6.27,14.25-14.01,33.75-4.14-9.13,11.03,7.56-1.96,4.73-21.25-7.61Z"/>
    <path d="M966.69,1851.06l10.52.14-6.09,6.12c1.31-4.78,3.93-15.8,5.45-22.45l10.3-45.26-6.47-2.36,1.03-4.53,23.22.21,1.49,1.48-3.84,14.9-3.72,16.34v1.47s-8.26,36.3-8.26,36.3l-4.82,8.7-19.95-6.08,1.14-4.99ZM1012.58,1839.25c2.88-12.67-.17-19.07-6.55-20.52-5.64-1.29-11.77,3.52-16.1,6.37l-.56-2c8.77-10.13,17.16-14.05,26.62-11.9,11.68,2.66,18.88,14.08,14.82,31.91-3.94,17.29-17.2,25.5-29.28,22.75-9.64-2.19-14.04-8.93-16.28-21.09l1.43-1.81c3.07,6.92,5.57,11.24,10.85,12.44,6.25,1.42,12.17-3.49,15.05-16.17Z"/>
    <path d="M1065.97,1855.09c-.36,6.84,1.75,9.18,5.49,9.37,4.33.23,9.88-3.9,13.4-8.35l4.21.22-.38,7.27-7.19-.38,3.69-2.97c-5.75,9.53-13.36,14.88-22.4,14.4-9.42-.5-15.43-6.1-14.48-20.59l1.97-29.53,3.31,3.7-9.7-2.71.24-4.64,22.56-1.99,1.67,1.27-1.37,15.51-1.02,19.42ZM1081.27,1875.16l-.22-12.98,2.3-35.98,3.31,3.78-9.39-2.7.22-4.24,22.05-2.42,1.67,1.27-1.15,15.52-1.92,36.49-6.95-7.22,12.92,3.44-.27,5.11-22.57-.07Z"/>
    <path d="M1126.68,1873.83c-.38-4.94-1.63-16.2-2.45-22.97l-.76-6.31c-.73-6.01-1.11-8.28-1.86-12.62l-6.8-.17-.52-4.29,20.67-9.87,2.02.94,2.46,11.99,2.21,18.22c.82,6.77,2.29,18,3.11,22.89l-18.06,2.19ZM1149.09,1865.96l.62,5.08-28.74,3.48-.62-5.08,9.86-3.41,8.33-1.01,10.55.94ZM1172.97,1832.04l1.54,12.72c.85,6.99,2.29,18,3.11,22.89l-18.06,2.19c-.38-4.94-1.6-15.98-2.45-22.97l-1.39-11.46c-.85-7-2.91-9.28-7.25-8.75-3.88.47-8.8,4-12.51,9.64l-3.71.45-.85-7.04,7.38-.9-3.77,3.57c6.31-11.98,12.1-16.27,19.93-17.22,9.47-1.15,16.51,4.27,18.03,16.88ZM1171.34,1861.04l10.95.89.62,5.08-28.82,3.49-.62-5.08,9.62-3.38,8.25-1Z"/>
    <path d="M1223.37,1848.78c1.96-.52,3.49-1.78,5.15-3.89l3.28,1.88c-1.39,6.14-5.54,10.55-13.32,12.6-9.64,2.55-16.42-.25-19.19-10.74-.98-3.7-1.62-6.58-2.72-10.73l-5.35-20.25-6.86,1.81-1.67-6.34,12.14-4.95-4.96,5.89,1.83-20.31,10.85-2.87,4.82,19.21,8.67,32.84c1.32,4.99,4.18,6.66,7.33,5.83ZM1217.39,1802.94l1.93,7.3-19.54,5.16-1.93-7.29,19.54-5.16Z"/>
    <path d="M1259.2,1825.1c2.62,6.33,5.53,7.53,8.99,6.09,4.01-1.66,7.24-7.78,8.49-13.31l3.89-1.61,2.79,6.72-6.65,2.75,2.05-4.27c-1.08,11.08-5.64,19.18-14.01,22.65-8.72,3.61-16.55,1.14-21.94-12.34l-10.95-27.5,4.58,1.91-9.93,1.73-1.78-4.29,19.5-11.52,2.05.42,5.45,14.58,7.45,17.97ZM1281.66,1836.62l-5.79-11.62-13.42-33.46,4.61,1.98-9.63,1.61-1.63-3.92,18.85-11.68,2.06.43,5.65,14.5,13.99,33.76-9.39-3.52,13.15-2.47,1.96,4.73-20.4,9.67Z"/>
  </g>
  <path d="M1420.18,1764.17c0-5.98,4.76-10.94,10.82-10.94s10.82,4.96,10.82,10.94-4.76,10.65-10.82,10.65-10.82-4.79-10.82-10.65Z"/>
  <path d="M753.18,1764.17c0-5.98,4.76-10.94,10.82-10.94s10.82,4.96,10.82,10.94-4.76,10.65-10.82,10.65-10.82-4.79-10.82-10.65Z"/>
</svg>